<?xml version="1.0" encoding="utf-8"?>
<!-- Generator: Adobe Illustrator 27.3.1, SVG Export Plug-In . SVG Version: 6.00 Build 0)  -->
<svg version="1.1" id="Layer_1" xmlns="http://www.w3.org/2000/svg" xmlns:xlink="http://www.w3.org/1999/xlink" x="0px" y="0px"
	 viewBox="0 0 32 32" style="enable-background:new 0 0 32 32;" xml:space="preserve">
<g>
	<path d="M0.7,15.7c0.1-0.3,0.3-0.5,0.4-0.8c0.3-0.4,0.7-0.5,1.2-0.5c0.7,0,1.3,0,2,0c8.4,0,16.9,0,25.3,0c0.5,0,0.9,0.1,1.3,0.4
		c0.4,0.4,0.6,1,0.4,1.6c-0.2,0.6-0.6,0.9-1.2,1c-0.2,0-0.3,0-0.5,0c-9,0-17.9,0-26.9,0c-1,0-1.6-0.3-1.9-1.2
		C0.7,16.1,0.7,15.9,0.7,15.7z"/>
	<path d="M0.7,26.4c0-0.1,0.1-0.2,0.1-0.3c0.3-0.6,0.7-0.9,1.3-0.9c0.1,0,0.2,0,0.4,0c9,0,18.1,0,27.1,0c0.2,0,0.4,0,0.7,0.1
		c0.7,0.2,1.2,0.9,1.1,1.6c-0.1,0.8-0.7,1.3-1.5,1.4c-0.1,0-0.2,0-0.4,0c-9,0-17.9,0-26.9,0c-1.1,0-1.5-0.2-1.9-1.2
		C0.7,26.8,0.7,26.6,0.7,26.4z"/>
	<path d="M0.7,5C0.9,4.3,1.3,3.9,2,3.8c0.1,0,0.2,0,0.4,0c9.1,0,18.2,0,27.3,0c1.1,0,1.9,0.9,1.6,1.9c-0.2,0.6-0.7,1.1-1.4,1.1
		c-0.1,0-0.3,0-0.4,0c-9,0-17.9,0-26.9,0c-1,0-1.6-0.3-1.9-1.2C0.7,5.4,0.7,5.2,0.7,5z"/>
</g>
</svg>
