<svg width="24" height="24" viewBox="0 0 24 24" fill="none" xmlns="http://www.w3.org/2000/svg">
<path d="M7.00781 12.0008C7.00781 11.8019 7.08683 11.6111 7.22748 11.4705C7.36813 11.3298 7.5589 11.2508 7.75781 11.2508H11.2508V7.75781C11.2508 7.5589 11.3298 7.36813 11.4705 7.22748C11.6111 7.08683 11.8019 7.00781 12.0008 7.00781C12.1997 7.00781 12.3905 7.08683 12.5311 7.22748C12.6718 7.36813 12.7508 7.5589 12.7508 7.75781V11.2508H16.2438C16.4427 11.2508 16.6335 11.3298 16.7741 11.4705C16.9148 11.6111 16.9938 11.8019 16.9938 12.0008C16.9938 12.1997 16.9148 12.3905 16.7741 12.5311C16.6335 12.6718 16.4427 12.7508 16.2438 12.7508H12.7508V16.2438C12.7508 16.4427 12.6718 16.6335 12.5311 16.7741C12.3905 16.9148 12.1997 16.9938 12.0008 16.9938C11.8019 16.9938 11.6111 16.9148 11.4705 16.7741C11.3298 16.6335 11.2508 16.4427 11.2508 16.2438V12.7508H7.75781C7.5589 12.7508 7.36813 12.6718 7.22748 12.5311C7.08683 12.3905 7.00781 12.1997 7.00781 12.0008Z" fill="black"/>
<path fill-rule="evenodd" clip-rule="evenodd" d="M7.31635 3.76659C10.4288 3.42155 13.5699 3.42155 16.6824 3.76659C18.5094 3.97059 19.9844 5.40959 20.1984 7.24659C20.5684 10.4036 20.5684 13.5926 20.1984 16.7496C19.9834 18.5866 18.5084 20.0246 16.6824 20.2296C13.5699 20.5747 10.4288 20.5747 7.31635 20.2296C5.48935 20.0246 4.01435 18.5866 3.80035 16.7496C3.43113 13.5927 3.43113 10.4035 3.80035 7.24659C4.01435 5.40959 5.49035 3.97059 7.31635 3.76659ZM16.5164 5.25659C13.5142 4.92383 10.4845 4.92383 7.48235 5.25659C6.9266 5.31825 6.40785 5.56547 6.00993 5.95831C5.61201 6.35115 5.35815 6.86667 5.28935 7.42159C4.9337 10.4626 4.9337 13.5346 5.28935 16.5756C5.35835 17.1303 5.61231 17.6456 6.01021 18.0383C6.40812 18.4309 6.92675 18.678 7.48235 18.7396C10.4594 19.0716 13.5394 19.0716 16.5164 18.7396C17.0718 18.6778 17.5902 18.4306 17.9879 18.038C18.3856 17.6454 18.6394 17.1302 18.7084 16.5756C19.064 13.5346 19.064 10.4626 18.7084 7.42159C18.6392 6.86719 18.3853 6.35224 17.9876 5.95982C17.5899 5.56739 17.0716 5.32037 16.5164 5.25859" fill="black"/>
</svg>
