<?xml version="1.0" encoding="UTF-8"?>
<svg id="Layer_1" data-name="Layer 1" xmlns="http://www.w3.org/2000/svg" version="1.1" viewBox="0 0 226 192">
  <defs>
    <style>
      .cls-1 {
        fill: #000;
        stroke-width: 0px;
      }
    </style>
  </defs>
  <path class="cls-1" d="M75.2,182.8h-4.5c-14.9,0-25.5-9-28.2-24.1v-.4l-5.1-31.1c-.6-.2-1.2-.4-1.7-.7-5.2-2.1-9.8-5.3-13.8-9.2-9.2-9.2-12.5-23.3-12.5-32.6v-2.9c0-9.3,3.3-23.4,12.5-32.6,4-4,8.6-7.1,13.8-9.2,5.2-2.2,10.7-3.2,16.3-3.2h28.2c9.2,0,18.1-1.9,26.6-5.5,8.4-3.7,15.9-8.9,22.2-15.6,2.9-3.1,6.7-5.3,10.9-6.2s8.5-.6,12.5,1,7.4,4.3,9.8,7.8c2.4,3.5,3.7,7.7,3.7,11.9v106.2c0,5.7-2.2,11-6.3,15.1-4,4-9.4,6.2-15,6.3-3,0-5.8-.6-8.5-1.8s-5.1-2.9-7.1-5c-6.3-6.7-13.8-11.9-22.2-15.6-5-2.2-10.3-3.7-15.7-4.6,2,6.6,4.4,14.1,6.5,21,1.1,3.6,1.5,7.5.9,11.2-.6,3.8-2.1,7.4-4.3,10.5h0c-2.2,3-5.2,5.4-8.5,7.1-3.2,1.6-6.8,2.4-10.4,2.4v-.2ZM53.9,157c1.8,9.5,7.7,14.4,17,14.4h4.3c2,0,3.9-.4,5.7-1.3,1.7-.9,3.3-2.1,4.4-3.7,1.2-1.6,2-3.6,2.3-5.6s.2-4.1-.5-6.1c-2.6-8.4-5.6-17.8-7.9-25.3h-29.7l4.4,27.1v.5ZM83.6,118.4c9.6.4,18.9,2.6,27.7,6.4,9.9,4.3,18.6,10.4,25.9,18.2,1,1,2.1,1.8,3.3,2.4,1.3.5,2.6.8,4,.8,2.7,0,5.2-1.1,7.1-2.9,1.9-1.9,2.9-4.4,2.9-7.1V30c0-2-.6-3.9-1.8-5.6-1.1-1.7-2.7-2.9-4.6-3.7-1.9-.7-3.9-.9-5.9-.5s-3.7,1.4-5.1,2.9c-7.4,7.8-16.1,14-25.9,18.2-9.9,4.3-20.3,6.4-31,6.4h-28.3c-4.1,0-8.1.8-11.9,2.4-3.8,1.6-7.2,3.9-10.1,6.8-6.3,6.3-9.2,17.2-9.2,24.6v2.9c0,7.4,2.9,18.3,9.2,24.6,2.9,2.9,6.3,5.2,10.1,6.8,1.2.5,2.5.9,3.8,1.3h.2c2.6.7,5.2,1,7.9,1s0,0,0,0h31.7v.3ZM198.4,139.8c-1.4,0-2.9-.6-4-1.7l-11.8-11.8c-2.2-2.2-2.2-5.8,0-8s5.8-2.2,8,0l11.8,11.8c2.2,2.2,2.2,5.8,0,8s-2.5,1.7-4,1.7ZM210.9,88.8h-19.5c-3.1,0-5.6-2.5-5.6-5.6s2.5-5.6,5.6-5.6h19.5c3.1,0,5.6,2.5,5.6,5.6s-2.5,5.6-5.6,5.6ZM186.6,49.6c-1.4,0-2.9-.6-4-1.7-2.2-2.2-2.2-5.8,0-8l11.8-11.8c2.2-2.2,5.8-2.2,8,0s2.2,5.8,0,8l-11.8,11.8c-1.1,1.1-2.5,1.7-4,1.7Z"/>
</svg>