<?xml version="1.0" encoding="utf-8"?>
<!-- Generator: Adobe Illustrator 27.3.1, SVG Export Plug-In . SVG Version: 6.00 Build 0)  -->
<svg version="1.1" id="Layer_1" xmlns="http://www.w3.org/2000/svg" xmlns:xlink="http://www.w3.org/1999/xlink" x="0px" y="0px"
	 viewBox="0 0 32 32" style="enable-background:new 0 0 32 32;" xml:space="preserve">
<g>
	<path d="M27.4,5.2c-2.9-3-6.9-4.8-11.1-4.9l-0.1,0C7.5,0.3,0.5,7,0.3,15.6c-0.1,4.3,1.5,8.3,4.4,11.4c2.9,3,7,4.8,11.2,4.8H16
		c8.6,0,15.5-6.7,15.7-15.3C31.8,12.2,30.2,8.2,27.4,5.2z M25.6,25.2c-2.5,2.6-5.8,4-9.3,4.1l-0.2,0C8.7,29.3,2.7,23.3,2.7,16
		c0-7.3,5.9-13.3,13.2-13.3l0.1-0.6v0.6c7.3,0,13.3,5.9,13.3,13.1C29.3,19.3,28,22.7,25.6,25.2z"/>
	<path d="M20.7,18c-0.3,0-0.7,0.1-0.9,0.4c0,0-0.1,0.1-0.2,0.2c-1,1.3-2.2,1.9-3.6,1.9c-0.2,0-0.4,0-0.6,0c-1.3-0.2-2.3-0.8-3.1-1.8
		c-0.7-0.9-0.9-1.9-0.8-3.1c0.1-1.1,0.6-2.1,1.4-2.8c0.9-0.8,1.8-1.2,2.9-1.2c0.5,0,1.1,0.1,1.7,0.3c0.8,0.3,1.5,0.8,2.1,1.6
		c0.1,0.1,0.1,0.2,0.2,0.2c0.2,0.2,0.5,0.4,0.9,0.4c0.3,0,0.5-0.1,0.7-0.2c0.5-0.4,0.6-1,0.3-1.5c-0.1-0.1-0.1-0.2-0.2-0.3
		c-1.4-1.9-3.3-2.8-5.5-2.8c-0.3,0-0.6,0-0.9,0c-1.3,0.1-2.4,0.6-3.4,1.4c-1.6,1.3-2.5,2.9-2.6,4.9c-0.1,1.6,0.3,3.1,1.2,4.3
		c1.3,1.9,3.1,2.9,5.5,3l0,0h0c2,0,3.6-0.7,5-2c0.3-0.3,0.6-0.7,0.9-1.1c0.4-0.5,0.2-1.2-0.3-1.6C21.2,18,21,18,20.7,18z"/>
</g>
</svg>
