<?xml version="1.0" encoding="UTF-8"?>
<svg id="Layer_1" data-name="Layer 1" xmlns="http://www.w3.org/2000/svg" version="1.1" viewBox="0 0 280 280">
  <defs>
    <style>
      .cls-1 {
        fill: #000;
        stroke-width: 0px;
      }
    </style>
  </defs>
  <path class="cls-1" d="M140,6C66.1,6,6,66.1,6,140s60.1,134,134,134,134-60.1,134-134S213.9,6,140,6ZM140,262c-67.3,0-122-54.7-122-122S72.7,18,140,18s122,54.7,122,122-54.7,122-122,122Z"/>
  <path class="cls-1" d="M195.1,84.9c-2.5-2.5-6.7-2.5-9.2,0l-45.9,45.9-45.9-45.9c-2.5-2.5-6.7-2.5-9.2,0s-2.5,6.7,0,9.2l45.9,45.9-45.9,45.9c-2.5,2.5-2.5,6.7,0,9.2s6.7,2.5,9.2,0l45.9-45.9,45.9,45.9c2.5,2.5,6.7,2.5,9.2,0s2.5-6.7,0-9.2l-45.9-45.9,45.9-45.9c2.5-2.5,2.5-6.7,0-9.2Z"/>
</svg>