<?xml version="1.0" encoding="utf-8"?>
<!-- Generator: Adobe Illustrator 26.5.0, SVG Export Plug-In . SVG Version: 6.00 Build 0)  -->
<svg version="1.1" id="Layer_1" xmlns="http://www.w3.org/2000/svg" xmlns:xlink="http://www.w3.org/1999/xlink" x="0px" y="0px"
	 viewBox="0 0 36 36" style="enable-background:new 0 0 36 36;" xml:space="preserve">
<style type="text/css">
	.st0{fill:#151525;}
</style>
<g>
	<path class="st0" d="M12.6,25c-0.5,0-0.9-0.2-1.2-0.5c-0.4-0.4-0.6-0.9-0.5-1.4l0.2-1.9c0.1-0.6,0.3-1.2,0.8-1.7l8.7-8.7
		c1.1-1.1,2.8-1.1,3.9,0l0.6,0.6c0.5,0.5,0.8,1.2,0.8,1.9s-0.3,1.4-0.8,1.9l-1,1c0,0,0,0,0,0L16.4,24c-0.5,0.5-1.1,0.7-1.7,0.8
		L12.8,25C12.7,25,12.7,25,12.6,25z M20.2,13.3l-7.2,7.2c-0.2,0.2-0.3,0.5-0.4,0.8l-0.2,1.9c0,0.1,0,0.2,0.1,0.2
		c0,0,0.1,0.1,0.2,0.1l1.9-0.2c0.3,0,0.6-0.2,0.8-0.4l7.2-7.2L20.2,13.3z M21.2,12.3l2.4,2.4l0.4-0.4c0.2-0.2,0.4-0.5,0.4-0.9
		s-0.1-0.6-0.4-0.9l-0.6-0.6c-0.5-0.5-1.3-0.5-1.8,0L21.2,12.3z"/>
</g>
</svg>
