<?xml version="1.0" encoding="utf-8"?>
<!-- Generator: Adobe Illustrator 26.5.0, SVG Export Plug-In . SVG Version: 6.00 Build 0)  -->
<svg version="1.1" id="Layer_1" xmlns="http://www.w3.org/2000/svg" xmlns:xlink="http://www.w3.org/1999/xlink" x="0px" y="0px"
	 viewBox="0 0 24 24" style="enable-background:new 0 0 24 24;" xml:space="preserve">
<g>
	<path d="M22,2.7c-1.1-1.1-2.6-1.8-4.2-1.8h0H6.2C4.6,0.9,3.1,1.6,2,2.7C0.9,3.8,0.3,5.3,0.2,6.9v6.9c0,1.6,0.6,3.1,1.8,4.2
		s2.6,1.8,4.2,1.8H9l1.2,2.1c0.2,0.3,0.4,0.6,0.8,0.8c0.3,0.2,0.7,0.3,1,0.3s0.7-0.1,1-0.3c0.3-0.2,0.6-0.4,0.8-0.8l1.2-2.1h2.7
		c1.6,0,3.1-0.6,4.2-1.8s1.8-2.6,1.8-4.2V6.9C23.7,5.3,23.1,3.8,22,2.7z M22.2,13.9c0,1.2-0.5,2.3-1.3,3.2s-2,1.3-3.2,1.3h-3.1
		c-0.3,0-0.5,0.1-0.6,0.4l-1.5,2.5c-0.1,0.1-0.1,0.2-0.2,0.2c-0.2,0.1-0.4,0.1-0.6,0c-0.1-0.1-0.2-0.1-0.2-0.2L10,18.7
		c-0.1-0.2-0.4-0.4-0.6-0.4H6.3c-1.2,0-2.3-0.5-3.2-1.3c-0.8-0.8-1.3-2-1.3-3.2V6.9c0-1.2,0.5-2.3,1.3-3.2c0.9-0.8,2-1.3,3.2-1.3
		h11.5c1.2,0,2.3,0.5,3.2,1.3c0.8,0.8,1.3,2,1.3,3.2V13.9z"/>
	<path d="M12.1,14.5c-0.4,0-0.8,0.3-0.8,0.8v0.3c0,0.4,0.3,0.8,0.8,0.8s0.8-0.3,0.8-0.8v-0.3C12.9,14.9,12.5,14.5,12.1,14.5z"/>
	<path d="M11.6,4.9c-1.1,0.2-2,1-2.4,2L8.9,7.8C8.8,8.2,9,8.6,9.4,8.7c0.4,0.1,0.8-0.1,0.9-0.5l0.3-0.8c0.2-0.6,0.6-0.9,1.2-1
		C12.4,6.3,13,6.5,13.3,7c0.4,0.6,0.4,1.4-0.1,1.9l-0.8,0.9c-0.7,0.8-1.1,1.9-1.1,2.9V13c0,0.4,0.3,0.8,0.8,0.8s0.8-0.3,0.8-0.8
		v-0.3c0-0.7,0.3-1.4,0.7-2l0.8-0.9c0.9-1.1,1-2.7,0.1-3.8C13.8,5.2,12.7,4.7,11.6,4.9z"/>
</g>
</svg>
