<?xml version="1.0" encoding="UTF-8"?>
<svg id="Layer_1" data-name="Layer 1" xmlns="http://www.w3.org/2000/svg" version="1.1" viewBox="0 0 226.5 191.5">
  <defs>
    <style>
      .cls-1 {
        fill: #000;
        stroke-width: 0px;
      }
    </style>
  </defs>
  <path class="cls-1" d="M172.8,179H41.2c-8.4,0-16.4-3.3-22.3-9.2-6-6-9.2-13.9-9.2-22.3V43.8c0-8.4,3.3-16.4,9.2-22.3s13.9-9.2,22.3-9.2h34.6c2.9,0,5.6.9,7.9,2.4l22.3,14.8h55.1c8.4,0,16.4,3.3,22.3,9.2l.3.3c3.2,3.2,7.6,7.6,7.6,13.8s-2.5,5.6-5.6,5.6-5.6-2.5-5.6-5.6-2.5-4-4.3-5.8l-.3-.3c-3.8-3.8-8.9-5.9-14.3-5.9h-56.1c-1.6,0-3.1-.5-4.4-1.3l-23.2-15.4c-.5-.3-1.1-.5-1.7-.5h-34.5c-5.4,0-10.5,2.1-14.3,5.9s-5.9,8.9-5.9,14.3v103.7c0,5.4,2.1,10.5,5.9,14.3s6.1,4.6,9.7,5.4l13.8-77.6h0c1.4-7.2,5.3-13.7,10.9-18.3s12.7-7.2,20-7.2h112.5c3.3,0,6.8.7,9.8,2.2,3.1,1.4,5.8,3.6,7.9,6.2.2.2.3.4.4.6,1.9,2.5,3.3,5.4,4.1,8.5.8,3.3.9,6.7.2,10l-12.4,62.2c-1.4,7.1-5.3,13.6-10.9,18.2-5.6,4.6-12.7,7.1-20,7.1h-.2ZM47.9,167.8h124.9c4.7,0,9.2-1.6,12.8-4.6s6.1-7.1,7-11.7l12.4-62.2c.3-1.7.3-3.4-.1-5.1-.4-1.7-1.2-3.2-2.3-4.6,0,0-.2-.2-.3-.4-1-1.2-2.3-2.1-3.7-2.8-1.5-.7-3.3-1.2-5-1.1h-112.5c-4.7,0-9.2,1.6-12.8,4.6-3.6,2.9-6.1,7.1-7,11.6l-13.5,76.1v.2Z"/>
</svg>