<?xml version="1.0" encoding="UTF-8"?>
<svg id="Layer_1" data-name="Layer 1" xmlns="http://www.w3.org/2000/svg" version="1.1" viewBox="0 0 224 266.5">
  <defs>
    <style>
      .cls-1 {
        fill: #000;
        stroke-width: 0px;
      }
    </style>
  </defs>
  <path class="cls-1" d="M116,261.2c-27.5,0-53.3-10.6-72.7-29.9-19.4-19.3-30.2-45-30.4-72.5-.2-20.6,5.7-40.5,17-57.6,2.3-3.5,14.6-20.4,14.7-20.6l.8-1.1c2.2-3,5.6-4.9,9.3-5.2,3.7-.3,7.4,1.1,10,3.7l9.2,9.2c1.1,1.1,2.6,1.4,4.1,1,1.6-.5,2.8-2.2,2.8-4.2,0-9.6,1.3-23.7,7.7-36.5,12.5-25.1,34.4-35.4,36.8-36.5h.3c3.6-1.7,7.8-1.7,11.5,0,3.6,1.7,6.3,5,7.3,8.9v.2c.2.5,2.5,8.4,9,20.9,6.4,12.3,18.2,31.6,38.1,53.5h0c17.6,19.4,27.6,42.5,27.6,63.5,0,56.9-46.3,103.1-103.1,103.1h0ZM55.8,88.6v.2c-2.5,3.3-12.6,17.3-14.5,20.1-9.8,14.8-14.9,32.1-14.7,49.9.2,23.8,9.5,46.1,26.4,62.8,16.8,16.7,39.2,25.9,63,25.9,23.6,0,46.7-9.5,63.6-26,16.8-16.5,26.4-39.2,25.7-62.8-.4-13.6-3.5-26.4-11.2-37.8-8.7-12.8-19.4-23.9-28.8-36.1-7.7-10-14.7-20.4-20.9-31.4s-2.2-4-3.3-6c-7.2-13.9-9.7-22.7-10-23.7v-.2h-.2c-.8.5-19.5,9.1-30.1,30.3-5.2,10.4-6.3,22.3-6.3,30.4s-4.9,14.9-12.3,17.3c-6.4,2-13.2.4-18-4.3l-8.4-8.4v-.2ZM119,225.2c-3.8,0-6.9-3.1-6.9-6.9v-7.4c-7.5-1.6-14.1-6.3-18-13.1l-2.6-4.5c-1.9-3.3-.8-7.5,2.5-9.4s7.5-.8,9.4,2.5l2.6,4.5c2.6,4.5,7.4,7.1,12.6,6.9h0c2.2-.1,4.2-.7,6.2-1.8,4.8-2.7,7.3-7.7,6.8-13.1-.5-5.5-3.8-9.9-9-11.8l-12.2-4.5c-10.1-3.7-17-12.7-17.9-23.5-.9-10.7,4.3-20.8,13.7-26.2,1.8-1.1,3.8-1.9,5.8-2.5v-7.9c0-3.8,3.1-6.9,6.9-6.9s6.9,3.1,6.9,6.9v7.4c7.5,1.6,14.1,6.3,18,13.1l2.6,4.5c1.9,3.3.8,7.5-2.5,9.4s-7.5.8-9.4-2.5l-2.6-4.5c-2.6-4.5-7.4-7.1-12.6-6.9h0c-2.2,0-4.2.7-6.2,1.8-4.8,2.7-7.3,7.7-6.8,13.1.5,5.5,3.8,9.9,9,11.8l12.2,4.5c10.1,3.7,17,12.7,17.9,23.5.9,10.7-4.3,20.8-13.7,26.2-1.8,1.1-3.8,1.9-5.8,2.5v7.9c0,3.8-3.1,6.9-6.9,6.9h0Z"/>
</svg>