<?xml version="1.0" encoding="utf-8"?>
<!-- Generator: Adobe Illustrator 26.5.0, SVG Export Plug-In . SVG Version: 6.00 Build 0)  -->
<svg version="1.1" id="Layer_1" xmlns="http://www.w3.org/2000/svg" xmlns:xlink="http://www.w3.org/1999/xlink" x="0px" y="0px"
	 viewBox="0 0 24 24" style="enable-background:new 0 0 24 24;" xml:space="preserve">
<path d="M15.5,8.2c0.2,0.4,0.1,0.8-0.3,1c-0.4,0.2-0.8,0.1-1-0.3l-0.3-0.6c-0.4-0.6-1-1-1.8-1c-0.3,0-0.6,0.1-0.9,0.3
	c-0.7,0.4-1,1.1-1,1.8c0.1,0.8,0.5,1.4,1.3,1.6l1.6,0.6c1.3,0.5,2.1,1.6,2.2,2.9c0.1,1.3-0.5,2.6-1.7,3.3c-0.3,0.2-0.5,0.3-0.8,0.3
	v1.1C12.7,19.7,12.4,20,12,20c-0.4,0-0.8-0.3-0.8-0.8v-1.1c-1-0.2-1.8-0.8-2.4-1.7l-0.3-0.6c-0.2-0.4-0.1-0.8,0.3-1s0.8-0.1,1,0.3
	l0.3,0.6c0.4,0.6,1,1,1.8,1c0.3,0,0.6-0.1,0.9-0.3c0.7-0.4,1-1.1,1-1.8c-0.1-0.8-0.5-1.4-1.3-1.6l-1.6-0.6c-1.3-0.5-2.1-1.6-2.2-2.9
	c-0.1-1.3,0.5-2.6,1.7-3.3C10.7,6.1,11,6,11.2,5.9V4.7C11.2,4.3,11.6,4,12,4c0.4,0,0.8,0.3,0.8,0.8v1.1c1,0.2,1.8,0.8,2.4,1.7
	L15.5,8.2z M23.8,12c0,6.5-5.3,11.8-11.8,11.8S0.2,18.5,0.2,12S5.5,0.2,12,0.2S23.8,5.5,23.8,12z M22.2,12c0-5.7-4.5-10.2-10.2-10.2
	S1.8,6.3,1.8,12S6.4,22.2,12,22.2C17.6,22.2,22.2,17.7,22.2,12z"/>
</svg>
