<?xml version="1.0" encoding="UTF-8"?>
<svg id="Layer_1" data-name="Layer 1" xmlns="http://www.w3.org/2000/svg" version="1.1" viewBox="0 0 260 202">
  <defs>
    <style>
      .cls-1 {
        fill: #000;
        stroke-width: 0px;
      }
    </style>
  </defs>
  <path class="cls-1" d="M111.8,190c-.2,0-.5,0-.7,0-3.3,0-6.5-.8-9.6-2-3.3-1.4-6.3-3.3-8.8-5.9l-54-53.3-26.2-6.6c-2.4-.6-4.4-2.5-5-5C-3.5,74.3,16.3,34.1,28.2,18.9c1.7-2.2,4.7-3.1,7.4-2.3,12.2,3.6,22.9,5.6,31.1,5.6h44.8c4.3-3.7,8.3-6.2,12.2-7.6,4.3-1.7,8.9-2.5,13.6-2.6,11.6,0,21.2,5.6,34.4,13.4,3.6,2.1,7.6,4.5,12.2,7,0,0,0,0,.1,0,1.1.6,2.2.9,3.5,1,.9,0,1.8-.2,2.6-.6,0,0,.1,0,.2,0l31.4-12.7c2.6-1.1,5.7-.4,7.6,1.7,13,14.1,34.7,51.7,23.2,92.8-.5,1.8-1.7,3.3-3.4,4.2l-28.9,15.4c-.5,3.1-1.4,6.2-2.4,8.9-1.3,3.9-3.5,7.5-6.4,10.4-3,3-7.7,5.1-11.7,6.5-1.2,5.3-3.9,10.3-7.6,13.9-4.7,4.5-9.1,7.3-16.5,7.3h0c-2.7,0-5.5-.4-8.2-1.2-.4.4-.8.9-1.2,1.2-5.1,5.1-11.9,7.9-19.1,7.9s-12.2-2.1-17-6c-1.6,1.5-3.3,2.8-5.1,3.7-4,2.2-8.5,3.4-13.1,3.4ZM111.8,176.3c.2,0,.3,0,.5,0,2.1,0,4.1-.7,6-1.7.5-.3,1.1-.7,1.6-1.1l-13.9-14.4c-2.6-2.7-2.6-7.1.2-9.7,2.7-2.6,7.1-2.6,9.7.2l17.9,18.5,3.3,2.6c.2.2.4.3.6.5,2.5,2.5,5.9,3.9,9.4,3.9s6.2-1.1,8.6-3.1l-27.6-26.4c-2.7-2.6-2.8-7-.2-9.7,2.6-2.7,7-2.8,9.7-.2l31.3,30c1.9.9,4.5,1.5,6.7,1.5h0c2.7,0,3.9-.4,7-3.4,1.7-1.6,3-4.1,3.7-6.6l-34.5-29.2c-2.9-2.4-3.3-6.8-.8-9.7,2.4-2.9,6.8-3.2,9.7-.8l34.7,29.3c2.8-.9,5.5-2.2,6.4-3.2,1.4-1.4,2.5-3.2,3.2-5.1.9-2.5,1.3-4.3,1.6-5.5l-58.8-44.9c-.8-.4-3.1-1.5-4.5-1.9-.3,0-.5-.2-.8-.3-.2,0-1.4-.4-3.4-.4-1.4,0-2.9.5-4.1,1.3-7.9,5.5-21.2,14.7-36.1,14.7-11.3,0-21.8-5.4-30.2-15.5-2.4-2.9-3.6-6.6-3.2-10.3.3-3.7,2.1-7.1,5-9.6,7.7-6.5,15.1-15.3,22.3-23.7l2.1-2.5c0,0,.1-.2.2-.2l3.6-3.9h-31.7c-8.5,0-18.7-1.6-30.3-4.8-10.1,14.9-23.4,45.7-16.4,78.9l22.4,5.6c2.1.5,4.1,1.6,5.7,3.2l54.3,53.7c1.3,1.3,2.7,2.2,4.3,2.9s3.4,1,5.1,1h0ZM39,128.8s0,0,0,0h0ZM155.8,77.2l58.3,44.5,25.8-13.8c7.4-31.1-6.9-59.6-17.8-73.4l-26.8,10.8c-2.6,1.1-5.3,1.7-8.1,1.7,0,0,0,0-.1,0-3.6,0-7.1-1-10.2-2.8-4.6-2.6-8.7-5-12.3-7.1-12.3-7.2-19.7-11.5-27.5-11.5-3,0-5.9.6-8.7,1.7-2.8,1-6,3.2-9.6,6.5l-13.9,15.1-2,2.4c-7.5,8.9-15.3,18.2-24,25.4,0,0-.1.2-.1.3,0,.1,0,.2.1.3,5.9,7.1,12.4,10.5,19.7,10.5,10.7,0,21.3-7.3,28.3-12.2,3.5-2.5,7.7-3.8,12-3.8,3.3,0,6.1.5,8.3,1.3,1.9.6,6.4,2.3,8.6,4ZM147.2,87.9c0,0,.1.1.2.2,0,0-.1-.1-.2-.2Z"/>
</svg>