<?xml version="1.0" encoding="UTF-8"?>
<svg id="Layer_1" data-name="Layer 1" xmlns="http://www.w3.org/2000/svg" version="1.1" viewBox="0 0 270 221">
  <defs>
    <style>
      .cls-1 {
        fill: #000;
        stroke-width: 0px;
      }
    </style>
  </defs>
  <path class="cls-1" d="M124.1,212.3c-3.6,0-9-1.2-14.4-6.7l-2.4-2.5c-25.6-26.1-49.9-50.8-78.2-78.6-.2-.2-.3-.3-.4-.4-.6-.6-1.1-1.2-1.5-1.6v-.2c-6.2-6.7-10.8-14.4-13.8-23-3-8.6-4.3-17.5-3.9-26.6.5-9.1,2.7-17.8,6.6-26,3.9-8.2,9.3-15.4,16.1-21.5s14.6-10.7,23.1-13.7c8.6-3,17.5-4.3,26.6-3.7,9.1.5,17.8,2.8,26,6.8,6,2.9,11.5,6.6,16.3,11.1,10-8.9,22.5-14.8,35.8-16.8,15.2-2.2,30.9.8,44.2,8.4,13.3,7.7,23.8,19.8,29.5,34,5.1,12.8,6.2,27,3.1,40.7,15.1,12.4,23.9,31,23.9,50.6,0,36.1-29.4,65.7-65.4,65.4-7.2,0-14.5-.7-21.5-2.9s-13.1-6.2-18.8-11-1.6-1.4-2.5-2.1l-5.4,5.4-7.5,7.5c-4.8,4.9-10,7.4-15.5,7.4ZM38.3,114.4s.2,0,.2.2c28.5,28,52.8,52.7,78.5,78.9l2.5,2.5c1.2,1.2,2.9,2.6,4.7,2.6s4.2-1.8,5.7-3.3,3.8-3.9,7.5-7.6l5.7-5.7c-8.6-11.3-13.2-25.1-13.2-39.4,0-36.1,29.4-66.1,65.4-65.4,5.1,0,10.2.3,15.2,1.4s9.3,3.1,13.8,5.4c1.2-9.3,0-18.9-3.4-27.5-4.6-11.4-12.9-21.1-23.6-27.2-10.7-6.1-23.2-8.5-35.4-6.8-12.2,1.8-23.5,7.7-32,16.6-.3.3-.5.6-.8.9-1.3,1.4-3.2,2.3-5.1,2.3s-3.8-.8-5.1-2.3c-4.8-5.4-10.6-9.8-17.1-13s-13.5-5-20.8-5.4c-7.3-.4-14.4.6-21.3,3-6.9,2.4-13.1,6.1-18.5,10.9-5.4,4.9-9.8,10.6-12.9,17.2-3.1,6.6-4.9,13.6-5.3,20.8-.4,7.3.7,14.4,3.1,21.3,2.4,6.9,6.1,13.1,11,18.5l.2.2c.3.3.5.6.7.8,0,0,0,0,.2,0h0ZM157.5,177.7c9.5,10.2,23.1,16.6,37.8,16.6,28.5,0,51.7-23.2,51.7-51.7,0-8.1-1.2-16.4-4.8-23.8s-10.1-13.5-17-18.4c0,0-.2,0-.2-.2-8.7-6.1-19-9.3-29.7-9.3-28.5,0-51.4,23.2-51.7,51.7-.1,13.5,5.2,25.8,13.9,35.1ZM28.7,124.2h0ZM38,114.1h0ZM37.9,114.1h0ZM195,177.1c-3.8,0-6.9-3.1-6.9-6.9v-20.6h-20.6c-3.8,0-6.9-3.1-6.9-6.9s3.1-6.9,6.9-6.9h20.6v-20.6c0-3.8,3.1-6.9,6.9-6.9s6.9,3.1,6.9,6.9v20.6h20.6c3.8,0,6.9,3.1,6.9,6.9s-3.1,6.9-6.9,6.9h-20.6v20.6c0,3.8-3.1,6.9-6.9,6.9Z"/>
</svg>