<?xml version="1.0" encoding="utf-8"?>
<!-- Generator: Adobe Illustrator 26.5.0, SVG Export Plug-In . SVG Version: 6.00 Build 0)  -->
<svg version="1.1" id="Layer_1" xmlns="http://www.w3.org/2000/svg" xmlns:xlink="http://www.w3.org/1999/xlink" x="0px" y="0px"
	 viewBox="0 0 24 24" style="enable-background:new 0 0 24 24;" xml:space="preserve">
<g>
	<path d="M19,22h-2v-3c0-1.3-0.5-2.6-1.5-3.5S13.3,14,12,14c-1.3,0-2.6,0.5-3.5,1.5C7.5,16.4,7,17.7,7,19v3H5v-3
		c0-1.9,0.7-3.6,2.1-4.9c0.5-0.5,1.1-0.9,1.7-1.3c-0.1-0.1-0.2-0.2-0.3-0.3c-0.4-0.5-0.8-1-1-1.5H7c-2.8,0-5,2.2-5,5v2H0v-2
		c0-2.7,1.5-5,3.8-6.2C2.7,8.9,2,7.5,2,6c0-2.8,2.3-5,5-5c2.1,0,3.9,1.2,4.7,3c0.2,0,0.4,0,0.6,0c0.8-1.8,2.6-3,4.7-3
		c2.7,0,5,2.2,5,5c0,1.5-0.7,2.9-1.8,3.8C22.5,11,24,13.3,24,16v2h-2v-2c0-2.8-2.2-5-5-5h-0.4c-0.2,0.6-0.6,1.1-1,1.5
		c-0.1,0.1-0.2,0.2-0.3,0.3c0.6,0.3,1.2,0.7,1.7,1.3c1.3,1.3,2.1,3.1,2.1,4.9V22z M12,6c-0.8,0-1.6,0.3-2.1,0.9C9.3,7.4,9,8.2,9,9
		s0.3,1.6,0.9,2.1c1.1,1.1,3.1,1.1,4.2,0C14.7,10.6,15,9.8,15,9s-0.3-1.6-0.9-2.1C13.6,6.3,12.8,6,12,6z M17,9c1.6,0,3-1.3,3-3
		c0-1.6-1.4-3-3-3c-1.2,0-2.2,0.6-2.7,1.5c0.5,0.2,0.9,0.5,1.3,0.9C16.5,6.4,17,7.7,17,9z M7,9c0-1.3,0.5-2.6,1.5-3.5
		c0.4-0.4,0.8-0.7,1.3-0.9C9.2,3.6,8.2,3,7,3C5.4,3,4,4.4,4,6C4,7.6,5.4,9,7,9z"/>
</g>
</svg>
