<?xml version="1.0" encoding="UTF-8"?>
<svg id="Layer_1" data-name="Layer 1" xmlns="http://www.w3.org/2000/svg" version="1.1" viewBox="0 0 244 294">
  <defs>
    <style>
      .cls-1 {
        fill: #000;
        stroke-width: 0px;
      }
    </style>
  </defs>
  <path class="cls-1" d="M231.4,119.7c-.8-24.1-7.9-46.1-21.6-65.9C177.8,7.3,118.1-6.6,69.8,20.7,26.1,45.3-4.8,109.4,23.2,167.8c18.6,38.8,43.4,73.2,71.3,105.6,3.6,4.2,8.4,7.7,13.4,10.2,14.2,7.3,30,3.2,42.4-11.2,23.9-27.7,45.5-57,62.7-89.4,10.5-19.8,19.3-40.3,18.5-63.5ZM193.6,167.5c-16.1,31.6-37.1,60-59.9,87-9.3,11.1-13.9,11.4-22.8.8-26.6-31.7-51-64.8-67.8-103.1-20.2-46,10-109.2,63.8-119.9,33.1-6.5,68,9.7,86.8,41.2,8.6,14.4,13.4,31.5,13.4,45.8.5,18.9-6.1,33.7-13.4,48.1Z"/>
  <path class="cls-1" d="M121.9,79.9c-27.1,0-49,22-48.8,48.9.2,26.9,21.8,48.3,48.8,48.3,27.2,0,49.1-21.8,48.8-48.8-.2-26.9-22-48.4-48.8-48.4ZM121.6,152.9c-13.2-.1-24.1-11.1-24.2-24.3,0-13.4,11.1-24.6,24.5-24.5,13.4,0,24.6,11.4,24.4,24.6-.2,13.5-11.2,24.3-24.8,24.2Z"/>
</svg>