<?xml version="1.0" encoding="utf-8"?>
<!-- Generator: Adobe Illustrator 26.5.0, SVG Export Plug-In . SVG Version: 6.00 Build 0)  -->
<svg version="1.1" id="Layer_1" xmlns="http://www.w3.org/2000/svg" xmlns:xlink="http://www.w3.org/1999/xlink" x="0px" y="0px"
	 viewBox="0 0 24 24" style="enable-background:new 0 0 24 24;" xml:space="preserve">
<style type="text/css">
	.st0{fill:#151515;}
</style>
<g>
	<path class="st0" d="M17.8,21.4H6.2c-1.6,0-3.1-0.6-4.2-1.7c-1.1-1.2-1.7-2.7-1.7-4.2V8.6c0-1.7,0.6-3.3,1.7-4.3
		c1.2-1.1,2.7-1.7,4.2-1.7h11.6c1.6,0,3.2,0.7,4.2,1.7c1.1,1.2,1.7,2.7,1.7,4.2v6.9c0,1.6-0.6,3.1-1.7,4.2
		C20.7,20.8,19.2,21.4,17.8,21.4z M6.2,4.1C5.1,4.1,4,4.6,3.1,5.4C2.3,6.1,1.8,7.3,1.8,8.6v6.9c0,1.1,0.5,2.3,1.3,3.2
		c0.8,0.8,1.9,1.3,3.1,1.3h11.5c1.1,0,2.3-0.5,3.2-1.3c0.8-0.8,1.3-1.9,1.3-3.1V8.6c0-1.1-0.5-2.3-1.3-3.2c-0.7-0.8-1.9-1.3-3-1.3
		H6.2z M12,14.9c-1.3,0-2.7-0.4-3.8-1.2l-4.3-3.4C3.6,10,3.5,9.5,3.8,9.2C4,8.9,4.5,8.8,4.8,9.1l4.3,3.4c1.7,1.2,4.1,1.2,5.9,0
		l4.5-3.4c0.3-0.2,0.8-0.2,1.1,0.1c0.2,0.3,0.2,0.8-0.1,1.1l-4.5,3.4C14.7,14.5,13.4,14.9,12,14.9z"/>
</g>
</svg>
