<?xml version="1.0" encoding="utf-8"?>
<!-- Generator: Adobe Illustrator 26.5.0, SVG Export Plug-In . SVG Version: 6.00 Build 0)  -->
<svg version="1.1" id="Layer_1" xmlns="http://www.w3.org/2000/svg" xmlns:xlink="http://www.w3.org/1999/xlink" x="0px" y="0px"
	 viewBox="0 0 24 24" style="enable-background:new 0 0 24 24;" xml:space="preserve">
<style type="text/css">
	.st0{fill:#151525;}
</style>
<g>
	<path class="st0" d="M12,22.3c-0.6,0-1.1-0.2-1.5-0.7c-0.9-0.9-1.8-1.8-2.7-2.7c-1.8-1.8-3.6-3.7-5.6-5.6l-0.1-0.1
		C0.8,11.8,0.1,10,0.3,8.2c0.1-1.8,1-3.6,2.3-4.8c1.3-1.2,3.2-1.9,5.1-1.8c0,0,0,0,0,0c1.6,0,3.1,0.6,4.4,1.7
		c0.5-0.4,1.1-0.9,1.8-1.2C16,1.3,17.7,1.4,19.2,2c1,0.4,1.7,0.8,2.4,1.5c1.3,1.2,2.1,2.9,2.2,4.7c0.1,1.9-0.6,3.7-1.9,5.1
		c-3.2,3.3-8.2,8.3-8.2,8.3C13.2,22,12.6,22.3,12,22.3C12,22.3,12,22.3,12,22.3z M7.3,3C5.9,3,4.6,3.6,3.6,4.5
		c-1.1,1-1.8,2.4-1.9,3.8c-0.1,1.5,0.4,2.9,1.4,3.9l0.1,0.1c2,1.9,3.8,3.8,5.6,5.6c0.9,0.9,1.8,1.8,2.7,2.7c0.2,0.2,0.3,0.2,0.5,0.2
		c0.2,0,0.4-0.1,0.6-0.3c0.1,0,5-5,8.2-8.3c1.1-1.1,1.6-2.4,1.5-3.9c-0.1-1.4-0.7-2.8-1.8-3.7c0,0,0,0,0,0C20,4,19.4,3.7,18.6,3.4
		C18,3.2,17.3,3,16.5,3c-0.6,0-1.3,0.1-2.1,0.5c-0.7,0.3-1.4,0.9-1.8,1.3C12.4,5,12.2,5.1,12,5c-0.2,0-0.4-0.1-0.5-0.2
		C10.4,3.7,9,3,7.6,3C7.5,3,7.4,3,7.3,3z M19.4,10.4c-0.4,0-0.8-0.3-0.8-0.8c0-1.9-0.8-2.8-2.7-2.8c-0.4,0-0.8-0.3-0.8-0.8
		s0.3-0.8,0.8-0.8c2.7,0,4.2,1.5,4.2,4.2C20.2,10,19.8,10.4,19.4,10.4z"/>
</g>
</svg>
