<?xml version="1.0" encoding="UTF-8"?>
<svg id="Layer_1" data-name="Layer 1" xmlns="http://www.w3.org/2000/svg" version="1.1" viewBox="0 0 268 268">
  <defs>
    <style>
      .cls-1 {
        fill: #000;
        stroke-width: 0px;
      }
    </style>
  </defs>
  <path class="cls-1" d="M215.6,259.7c-.1,0-.2,0-.3,0-3.5,0-5.7,0-34.9-30.4-9.2-9.6-18.3-19.3-23.1-24.5-1.6.8-3.2,1.6-4.7,2.4l-.6.2c-22.4,8.8-47.3,9.5-70.1,1.9-12.7-4.2-24.3-10.7-34.5-19.4h0c-8.1-6.9-15-14.9-20.6-23.9-12.7-20.4-17.9-44.8-14.6-68.6,3.3-23.8,14.9-45.9,32.6-62.1,17.8-16.2,40.8-25.8,64.8-26.9,24-1.1,47.8,6.3,67,20.8,19.2,14.5,32.8,35.4,38.2,58.8,5.5,23.4,2.5,48.1-8.2,69.6-.6,1.3-1.5,2.9-2.5,4.7,5.1,4.8,14.2,13.2,23.3,21.9,29.5,28.3,29.5,30.5,29.5,34,0,5.5-1,10.9-3.1,15.9-2.1,5.1-5.1,9.6-9,13.5-3.9,3.9-8.4,6.9-13.5,9-5,2-10.3,3.1-15.6,3.1ZM169.8,198.2c20.1,21.6,41.3,43.4,47.1,47.8,3.1-.2,6.2-.8,9.1-2,3.4-1.4,6.4-3.4,9-6,2.6-2.6,4.6-5.6,6-9,1.2-2.9,1.9-6,2-9.1-4.4-5.8-25.7-26.5-46.8-46.1-.9,1.3-1.8,2.4-2.5,3.3l-.2.2c-3.7,4.5-7.9,8.7-12.4,12.5h0c-2.5,2.2-5.2,4.2-8,6.2-.4.3-1.2.8-3.5,2.1ZM59.3,181.9c8.1,6.3,17.1,11.2,26.9,14.4,19.7,6.5,41.2,6,60.5-1.6,2.8-1.4,6.1-3.1,8.9-4.5l3.2,6.1-3.2-6.1c7.9-4.1,9.5-5.2,9.7-5.3h.1c1.3-1,2.7-2,4-3-1.8-8.4-6-16.2-12.1-22.2-8.4-8.4-19.6-13-31.4-13h-23.1c-11.9,0-23,4.6-31.4,13s-10.3,13.9-12.1,22.3ZM51.9,184.7l-.2.2.2-.2ZM176.8,184.6h0ZM114.3,22c-1.4,0-2.7,0-4.1,0-20.8,1-40.8,9.2-56.2,23.3-15.4,14.1-25.4,33.2-28.3,53.8-2.8,20.7,1.7,41.8,12.7,59.5,2.8,4.5,6,8.8,9.6,12.7,2.9-8.1,7.5-15.5,13.6-21.5,11-11,25.6-17,41.1-17.1h23.1c15.5,0,30.1,6.1,41.1,17.1,6.1,6.1,10.7,13.4,13.6,21.5.8-.9,1.6-1.8,2.4-2.7,1.6-2.1,4.2-5.6,6.5-9l5.7,3.8-5.7-3.8c2.8-4.2,4.1-6.6,4.7-7.8v-.2c9.5-18.6,12-40.1,7.3-60.4-4.7-20.3-16.5-38.4-33.1-51-15.5-11.8-34.6-18.1-54-18.1ZM114.4,123.2c-7.3,0-14.3-2.1-20.3-6.2-6-4-10.7-9.7-13.5-16.4-2.8-6.7-3.5-14-2.1-21.2,1.4-7.1,4.9-13.6,10-18.8,5.1-5.1,11.6-8.6,18.8-10,7.1-1.4,14.4-.7,21.2,2.1,6.7,2.8,12.4,7.5,16.4,13.5,4,6,6.2,13.1,6.1,20.4,0,9.8-3.8,18.9-10.7,25.8-6.9,6.9-16.1,10.7-25.9,10.7h0ZM114.4,63.7c-1.5,0-3,.1-4.5.4-4.5.9-8.5,3-11.7,6.3-3.2,3.2-5.4,7.3-6.3,11.7-.9,4.5-.4,9,1.3,13.2,1.7,4.2,4.7,7.8,8.4,10.3,3.8,2.5,8.2,3.9,12.7,3.9h0c6.1,0,11.9-2.4,16.2-6.7,4.3-4.3,6.7-10.1,6.7-16.2,0-4.5-1.3-8.9-3.8-12.7-2.5-3.8-6.1-6.7-10.3-8.5-2.8-1.2-5.8-1.8-8.8-1.8Z"/>
</svg>