<?xml version="1.0" encoding="UTF-8"?>
<svg id="Layer_1" data-name="Layer 1" xmlns="http://www.w3.org/2000/svg" version="1.1" viewBox="0 0 266 266">
  <defs>
    <style>
      .cls-1 {
        fill: #000;
        fill-rule: evenodd;
        stroke-width: 0px;
      }
    </style>
  </defs>
  <path class="cls-1" d="M133,261c16.8,0,33.5-3.3,49-9.7,15.5-6.4,29.6-15.9,41.5-27.7,11.9-11.9,21.3-26,27.7-41.5,6.4-15.5,9.7-32.2,9.7-49s-3.3-33.5-9.7-49c-6.4-15.5-15.9-29.6-27.7-41.5-11.9-11.9-26-21.3-41.5-27.7-15.5-6.4-32.2-9.7-49-9.7-33.9,0-66.5,13.5-90.5,37.5C18.5,66.5,5,99.1,5,133s13.5,66.5,37.5,90.5c24,24,56.6,37.5,90.5,37.5ZM115.7,76l80.3,44.6c2.2,1.2,4.1,3,5.3,5.2,1.3,2.2,2,4.7,2,7.2s-.7,5-2,7.2c-1.3,2.2-3.1,4-5.3,5.2l-80.3,44.6c-2.6,1.4-5.5,2.2-8.5,2.1-3,0-5.9-.8-8.4-2.4-2.6-1.5-4.7-3.7-6.2-6.2-1.5-2.6-2.2-5.5-2.2-8.5v-84.2c0-3,.8-5.9,2.2-8.5,1.5-2.6,3.6-4.7,6.2-6.2,2.6-1.5,5.5-2.3,8.4-2.4,3,0,5.9.7,8.5,2.1Z"/>
</svg>