<?xml version="1.0" encoding="utf-8"?>
<!-- Generator: Adobe Illustrator 26.5.0, SVG Export Plug-In . SVG Version: 6.00 Build 0)  -->
<svg version="1.1" id="Layer_1" xmlns="http://www.w3.org/2000/svg" xmlns:xlink="http://www.w3.org/1999/xlink" x="0px" y="0px"
	 viewBox="0 0 24 24" style="enable-background:new 0 0 24 24;" xml:space="preserve">
<style type="text/css">
	.st0{fill:#151515;}
</style>
<g>
	<path class="st0" d="M22.5,21.5L16,14.9c0.6-0.7,1.1-1.5,1.4-2.3c0.4-1.1,0.7-2.2,0.7-3.4s-0.2-2.3-0.7-3.4
		c-0.5-1.1-1.1-2.1-1.9-2.9c-0.8-0.8-1.8-1.5-2.9-1.9C10.4,0,7.9,0,5.8,0.9C4.7,1.4,3.7,2,2.9,2.9S1.4,4.7,0.9,5.8
		C0.5,6.8,0.2,8,0.2,9.2c0,1.2,0.2,2.3,0.7,3.4c0.5,1.1,1.1,2.1,1.9,2.9c0.8,0.8,1.8,1.5,2.9,1.9c2.2,0.9,4.7,0.9,6.8,0
		c0.9-0.4,1.6-0.8,2.3-1.4l6.6,6.6c0.1,0.1,0.3,0.2,0.5,0.2s0.4-0.1,0.5-0.2C22.8,22.2,22.8,21.8,22.5,21.5z M14.4,14.4
		c-0.7,0.7-1.5,1.2-2.4,1.6c-1.8,0.7-3.9,0.7-5.7,0c-0.9-0.4-1.7-0.9-2.4-1.6c-0.7-0.7-1.2-1.5-1.6-2.4c-0.4-0.9-0.6-1.9-0.6-2.8
		s0.2-1.9,0.6-2.8c0.4-0.9,0.9-1.7,1.6-2.4s1.5-1.2,2.4-1.6c0.9-0.4,1.9-0.6,2.8-0.6s1.9,0.2,2.8,0.6c0.9,0.4,1.7,0.9,2.4,1.6
		c0.7,0.7,1.2,1.5,1.6,2.4c0.4,0.9,0.6,1.9,0.6,2.8c0,1-0.2,1.9-0.6,2.8C15.6,12.9,15.1,13.7,14.4,14.4z"/>
	<path class="st0" d="M9,5.7c1.1,0,2,0.6,2,1.3h1.3c0-1.2-1-2.2-2.3-2.5V3H8v1.5C6.6,4.8,5.7,5.8,5.7,7c0,1.9,1.8,2.3,3.2,2.6
		C10.3,10,11,10.3,11,11c0,0.7-0.9,1.3-2,1.3S7,11.7,7,11H5.7c0,1.2,1,2.2,2.3,2.5V15h2v-1.5c1.4-0.3,2.3-1.4,2.3-2.5
		c0-1.9-1.8-2.3-3.2-2.6C7.7,8,7,7.7,7,7C7,6.3,7.9,5.7,9,5.7z"/>
</g>
</svg>
