<?xml version="1.0" encoding="utf-8"?>
<!-- Generator: Adobe Illustrator 26.5.0, SVG Export Plug-In . SVG Version: 6.00 Build 0)  -->
<svg version="1.1" id="Layer_1" xmlns="http://www.w3.org/2000/svg" xmlns:xlink="http://www.w3.org/1999/xlink" x="0px" y="0px"
	 viewBox="0 0 24 24" style="enable-background:new 0 0 24 24;" xml:space="preserve">
<g>
	<path d="M15.8,10.4c-1.2,0.4-1.8,0.1-2.3-1.2c-0.1-0.4-0.6-0.6-1-0.4c-0.4,0.1-0.6,0.6-0.4,1c0.6,1.5,1.5,2.3,2.8,2.3
		c0.4,0,0.9-0.1,1.4-0.3c0.4-0.1,0.6-0.6,0.4-1C16.6,10.5,16.2,10.3,15.8,10.4z"/>
	<path d="M23.1,11.3c0.6-0.5,0.8-1.3,0.6-2.1S22.8,7.9,22,7.8l-5.6-0.5c-0.2,0-0.3-0.1-0.4-0.3l-2.2-5.1c-0.3-0.7-1-1.2-1.8-1.2
		s-1.5,0.5-1.8,1.2L8,7C7.9,7.2,7.8,7.3,7.6,7.3L2,7.8C1.2,7.9,0.6,8.4,0.3,9.2c-0.2,0.8,0,1.6,0.6,2.1L5.1,15
		c0.1,0.1,0.2,0.3,0.1,0.5L4,20.9c-0.2,0.8,0.1,1.6,0.8,2C5.4,23.4,6.3,23.4,7,23l4.8-2.9c0.1-0.1,0.3-0.1,0.5,0L17,23
		c0.3,0.2,0.7,0.3,1,0.3c0.4,0,0.8-0.1,1.2-0.4c0.6-0.5,0.9-1.2,0.8-2l-1.2-5.5c0-0.2,0-0.3,0.1-0.5L23.1,11.3z M17.3,15.7l1.2,5.5
		c0.1,0.3-0.1,0.4-0.2,0.5c-0.1,0.1-0.3,0.2-0.5,0L13,18.8c-0.3-0.2-0.7-0.3-1-0.3s-0.7,0.1-1,0.3l-4.8,2.9c-0.2,0.1-0.4,0-0.5,0
		c-0.1-0.1-0.2-0.2-0.2-0.5l1.2-5.5c0.2-0.7-0.1-1.4-0.6-1.9l-4.2-3.7C1.7,10,1.7,9.7,1.8,9.7c0-0.1,0.1-0.3,0.4-0.3l5.6-0.5
		c0.7-0.1,1.3-0.5,1.6-1.2l2.2-5.1c0.1-0.3,0.3-0.3,0.4-0.3s0.3,0,0.4,0.3l2.2,5.1c0.3,0.7,0.9,1.1,1.6,1.2l5.6,0.5
		c0.3,0,0.4,0.2,0.4,0.3s0.1,0.3-0.1,0.5l-4.2,3.7C17.4,14.3,17.1,15,17.3,15.7z"/>
</g>
</svg>
