<?xml version="1.0" encoding="UTF-8"?>
<svg id="Layer_1" data-name="Layer 1" xmlns="http://www.w3.org/2000/svg" version="1.1" viewBox="0 0 296 300">
  <defs>
    <style>
      .cls-1 {
        fill: #000;
        stroke-width: 0px;
      }
    </style>
  </defs>
  <path class="cls-1" d="M251.5,134.8c1.8-68.2-53-123.5-118.9-125C65.1,8.2,7.9,62.6,7.9,131c0,68.2,54,122.5,121.8,122.5,67.4,0,120.1-54.2,121.8-118.6ZM129.5,229.1c-54.2,0-97.3-43.5-97.3-98.2,0-53.9,44-96.9,99.1-96.8,52.9,0,95.9,44.6,95.9,99.2,0,52.4-44.4,95.8-97.7,95.8Z"/>
  <path class="cls-1" d="M283.5,268.2c-15.5-15.5-31.1-31.1-46.6-46.6-1.2-1.2-2.5-2.3-3.9-3.1-8.1-4.5-17.7,1.3-18.4,10.8,1.2,2.6,1.8,5.8,3.7,7.8,16.4,16.8,32.9,33.5,49.8,49.8,6.6,6.5,17.3,2.8,19.7-6.2,1.4-5.1-.7-9.1-4.2-12.5Z"/>
</svg>