<?xml version="1.0" encoding="utf-8"?>
<!-- Generator: Adobe Illustrator 26.5.0, SVG Export Plug-In . SVG Version: 6.00 Build 0)  -->
<svg version="1.1" id="Layer_1" xmlns="http://www.w3.org/2000/svg" xmlns:xlink="http://www.w3.org/1999/xlink" x="0px" y="0px"
	 viewBox="0 0 24 24" style="enable-background:new 0 0 24 24;" xml:space="preserve">
<g>
	<path d="M22,9.2l-1.1-0.2c-0.2,0-0.5-0.2-0.6-0.5c-0.1-0.3-0.1-0.5,0-0.7L21,6.9c0.6-0.8,0.5-2-0.2-2.7l-0.9-0.9
		c-0.7-0.7-1.9-0.8-2.7-0.2l-0.9,0.6c-0.2,0.1-0.5,0.2-0.7,0c-0.3-0.1-0.5-0.3-0.5-0.6L14.8,2c-0.2-1-1.1-1.8-2.1-1.8h-1.3
		c-1,0-1.9,0.7-2.1,1.8L9.1,3.1c0,0.2-0.2,0.5-0.5,0.6C8.3,3.8,8,3.8,7.8,3.6L6.9,3c-0.8-0.6-2-0.5-2.7,0.2L3.2,4.2
		C2.5,4.9,2.4,6.1,3,6.9l0.6,0.9c0.1,0.2,0.2,0.5,0,0.7C3.6,8.8,3.4,9,3.1,9.1L2,9.2c-1,0.2-1.8,1.1-1.8,2.1v1.3
		c0,1,0.7,1.9,1.8,2.1l1.1,0.2c0.2,0,0.5,0.2,0.6,0.5c0.1,0.3,0.1,0.5,0,0.7L3,17.1c-0.6,0.8-0.5,2,0.2,2.7l0.9,0.9
		c0.7,0.7,1.9,0.8,2.7,0.2l0.9-0.6c0.2-0.1,0.5-0.2,0.7,0c0.3,0.1,0.5,0.3,0.5,0.6L9.2,22c0.2,1,1.1,1.8,2.1,1.8h1.3
		c1,0,1.9-0.7,2.1-1.8l0.2-1.1c0-0.2,0.2-0.5,0.5-0.6c0.3-0.1,0.5-0.1,0.7,0l0.9,0.6c0.8,0.6,2,0.5,2.7-0.2l0.9-0.9
		c0.7-0.7,0.8-1.9,0.2-2.7l-0.6-0.9c-0.1-0.2-0.2-0.5,0-0.7s0.3-0.5,0.6-0.5l1.1-0.2c1-0.2,1.8-1.1,1.8-2.1v-1.3
		C23.8,10.3,23,9.4,22,9.2z M22.2,12.7c0,0.3-0.2,0.6-0.5,0.6l-1.1,0.2c-0.8,0.1-1.4,0.7-1.7,1.4c-0.3,0.8-0.2,1.6,0.2,2.2l0.6,0.9
		c0.2,0.2,0.2,0.6-0.1,0.8l-0.9,0.9c-0.2,0.2-0.6,0.2-0.8,0.1l-0.9-0.6c-0.6-0.4-1.4-0.5-2.2-0.2c-0.8,0.3-1.3,1-1.4,1.7l-0.2,1.1
		c-0.1,0.3-0.3,0.5-0.6,0.5h-1.3c-0.3,0-0.6-0.2-0.6-0.5l-0.2-1.1c-0.1-0.8-0.7-1.4-1.4-1.7c-0.3-0.1-0.6-0.2-0.9-0.2
		c-0.5,0-0.9,0.1-1.3,0.4L6,19.8c-0.2,0.2-0.6,0.2-0.8-0.1l-0.9-0.9C4.1,18.6,4,18.2,4.2,18l0.6-0.9c0.4-0.6,0.5-1.4,0.2-2.2
		c-0.3-0.8-1-1.3-1.7-1.4l-1.1-0.2C2,13.2,1.8,13,1.8,12.7v-1.3c0-0.3,0.2-0.6,0.5-0.6l1.1-0.2c0.8-0.1,1.4-0.7,1.7-1.4
		c0.3-0.8,0.2-1.6-0.2-2.2L4.2,6C4,5.8,4.1,5.4,4.3,5.2l0.9-0.9C5.4,4.1,5.8,4,6,4.2l0.9,0.6c0.6,0.4,1.4,0.5,2.2,0.2
		c0.8-0.3,1.3-1,1.4-1.7l0.2-1.1c0,0,0,0,0,0C10.8,2,11,1.8,11.3,1.8h1.3c0.3,0,0.6,0.2,0.6,0.5l0.2,1.1c0.1,0.8,0.7,1.4,1.4,1.7
		c0.8,0.3,1.6,0.2,2.2-0.2L18,4.2c0.2-0.2,0.6-0.2,0.8,0.1l0.9,0.9C19.9,5.4,20,5.8,19.8,6l-0.6,0.9c-0.4,0.6-0.5,1.4-0.2,2.2
		c0.3,0.8,1,1.3,1.7,1.4l1.1,0.2c0.3,0.1,0.5,0.3,0.5,0.6V12.7z"/>
	<path d="M12,7.6c-2.4,0-4.4,2-4.4,4.4c0,2.4,2,4.4,4.4,4.4s4.4-2,4.4-4.4C16.4,9.6,14.4,7.6,12,7.6z M12,14.9
		c-1.6,0-2.9-1.3-2.9-2.9c0-1.6,1.3-2.9,2.9-2.9s2.9,1.3,2.9,2.9C14.9,13.6,13.6,14.9,12,14.9z"/>
</g>
</svg>
