<?xml version="1.0" encoding="UTF-8"?>
<svg id="Layer_1" data-name="Layer 1" xmlns="http://www.w3.org/2000/svg" version="1.1" viewBox="0 0 280 280">
  <defs>
    <style>
      .cls-1 {
        fill: #000;
        stroke-width: 0px;
      }
    </style>
  </defs>
  <path class="cls-1" d="M140,274c-73.9,0-134-60.1-134-134S66.1,6,140,6s134,60.1,134,134-60.1,134-134,134ZM140,18c-67.3,0-122,54.7-122,122s54.7,122,122,122,122-54.7,122-122S207.3,18,140,18ZM121.3,183.3c-1.6,0-3.2-.7-4.3-1.8l-34.6-35.8c-2.3-2.4-2.2-6.2.1-8.5,2.4-2.3,6.2-2.2,8.5.1l30.3,31.4,67.8-70.2c2.3-2.4,6.1-2.5,8.5-.1,2.4,2.3,2.5,6.1.2,8.5l-72.1,74.7c-1.1,1.2-2.7,1.8-4.3,1.8Z"/>
</svg>