<?xml version="1.0" encoding="utf-8"?>
<!-- Generator: Adobe Illustrator 26.5.0, SVG Export Plug-In . SVG Version: 6.00 Build 0)  -->
<svg version="1.1" id="Layer_1" xmlns="http://www.w3.org/2000/svg" xmlns:xlink="http://www.w3.org/1999/xlink" x="0px" y="0px"
	 viewBox="0 0 32 32" style="enable-background:new 0 0 32 32;" xml:space="preserve">
<g>
	<path d="M8.6,28.2l-0.8-1.1c-0.4-0.6-0.8-1.2-1.3-1.9c-0.6-0.8-1.1-1.7-1.7-2.5c-1-1.4-2.8-1.7-3.7-1.8c-0.5,0-0.9-0.5-0.9-1
		c0-0.5,0.5-0.9,1-0.9c2.2,0.2,4,1.1,5.1,2.5c0.6,0.9,1.2,1.8,1.8,2.6c0.2,0.2,0.3,0.5,0.5,0.7c3-4.2,13.7-18.4,21.9-21.2
		c0.5-0.2,1,0.1,1.2,0.6c0.2,0.5-0.1,1-0.6,1.2C22.3,8.5,9.5,26.9,9.4,27.1L8.6,28.2z"/>
</g>
</svg>
