<?xml version="1.0" encoding="utf-8"?>
<!-- Generator: Adobe Illustrator 26.5.0, SVG Export Plug-In . SVG Version: 6.00 Build 0)  -->
<svg version="1.1" id="Layer_1" xmlns="http://www.w3.org/2000/svg" xmlns:xlink="http://www.w3.org/1999/xlink" x="0px" y="0px"
	 viewBox="0 0 280 280" style="enable-background:new 0 0 280 280;" xml:space="preserve">
<g>
	<path d="M140,6C66.1,6,6,66.1,6,140s60.1,134,134,134s134-60.1,134-134S213.9,6,140,6z M140,262c-67.3,0-122-54.7-122-122
		S72.7,18,140,18s122,54.7,122,122S207.3,262,140,262z"/>
	<path d="M186.5,108.3c-13.2-14.1-26.4-28.3-39.6-42.4c-2.6-2.8-5-4.3-6.9-4.3c-1.9,0-4.2,1.5-6.9,4.3
		c-13.2,14.1-26.4,28.3-39.6,42.4l-19.4,20.8c-3.6,3.8-3.7,6.1-2.8,8.4c1,2.6,3.3,4.3,5.9,4.3c1.3,0,2.5-0.4,3.7-1.2
		c1.4-0.9,2.6-2.2,3.8-3.4c9.2-9.9,18.3-19.7,27.5-29.6l9.2-9.9c0.8-0.8,1.6-1.7,2.6-2.8l8.9-9.5l0,44.9c0,25.8,0,51.5,0,77.3
		c0,10.6,4.6,10.7,6.6,10.7c0,0,0.3,0,0.3,0c0.1,0,0.1,0,0.2,0c0.1,0,0.1,0,0.2,0c0,0,0.3,0,0.3,0c2,0,6.6-0.2,6.6-10.7
		c0-25.8,0-51.5,0-77.3l0-44.9l8.9,9.5c1,1.1,1.8,1.9,2.6,2.8l9.2,9.9c9.2,9.9,18.3,19.8,27.5,29.6c1.2,1.2,2.4,2.5,3.8,3.4
		c1.1,0.8,2.4,1.2,3.7,1.2c2.6,0,4.9-1.6,5.9-4.3c0.9-2.4,0.8-4.6-2.8-8.4L186.5,108.3z"/>
</g>
</svg>
