<?xml version="1.0" encoding="utf-8"?>
<!-- Generator: Adobe Illustrator 26.5.0, SVG Export Plug-In . SVG Version: 6.00 Build 0)  -->
<svg version="1.1" id="Layer_1" xmlns="http://www.w3.org/2000/svg" xmlns:xlink="http://www.w3.org/1999/xlink" x="0px" y="0px"
	 viewBox="0 0 24 24" style="enable-background:new 0 0 24 24;" xml:space="preserve">
<path d="M14.3,7.1c-0.4-1.2-1.1-2.1-2.1-2.7C11.2,3.8,10,3.7,8.9,4L4.5,5.2C3.3,5.6,2.4,6.3,1.8,7.3c-0.6,1.1-0.7,2.2-0.4,3.5
	L4,20.6c0.3,0.9,0.8,1.7,1.6,2.3c0.8,0.6,1.7,0.9,2.7,0.9c0.4,0,0.7-0.1,1.1-0.3l4.4-1.2c1.2-0.4,2.1-1.1,2.7-2.1
	c0.5-1,0.7-2.2,0.4-3.3L14.3,7.1z M15.1,19.5c-0.4,0.7-1.1,1.2-1.8,1.4l-4.4,1.2c-0.8,0.2-1.8,0-2.5-0.5c-0.5-0.3-0.8-0.9-1-1.5
	l-2.6-9.8C2.6,9.6,2.7,8.8,3.1,8.1c0.4-0.7,1-1.2,1.8-1.4l4.4-1.2c0.3-0.1,0.5-0.1,0.8-0.1c0.5,0,0.9,0.2,1.3,0.3
	c0.7,0.4,1.2,1.1,1.4,1.8l2.6,9.8C15.6,18,15.5,18.8,15.1,19.5z M22.8,6.6l-2.3,9.9c-0.2,0.7-0.5,1.3-0.9,1.8
	c-0.1,0.1-0.2,0.3-0.4,0.4C19,18.9,18.8,19,18.6,19c-0.2,0-0.4-0.1-0.5-0.2c-0.3-0.3-0.3-0.8,0-1.1c0.1-0.1,0.2-0.2,0.2-0.3
	c0.3-0.3,0.5-0.8,0.6-1.2l2.3-9.9c0.1-0.4,0.1-0.8,0-1.1c-0.1-0.4-0.2-0.7-0.4-1.1c-0.2-0.3-0.5-0.6-0.8-0.8s-0.7-0.4-1-0.5l-4.5-1
	c-0.7-0.2-1.4-0.1-2,0.3c-0.3,0.2-0.6,0.4-0.9,0.8c-0.3,0.3-0.7,0.4-1.1,0.1c-0.3-0.3-0.4-0.7-0.1-1.1c0.4-0.5,0.8-0.9,1.4-1.2
	c0.9-0.5,2-0.7,3.1-0.4l4.5,1C20,1.4,20.5,1.7,21,2s0.9,0.8,1.2,1.3s0.5,1,0.6,1.6C22.9,5.5,22.9,6.1,22.8,6.6z"/>
</svg>
