<svg width="512" height="512" viewBox="0 0 512 512" fill="none" xmlns="http://www.w3.org/2000/svg">
<circle cx="256" cy="256" r="123.871" fill="#F0E325" stroke="#F0E325" stroke-width="8.25806"/>
<path d="M256 132.129C272.267 132.129 288.375 135.333 303.403 141.558C318.432 147.783 332.088 156.908 343.59 168.41C355.092 179.912 364.217 193.568 370.442 208.597C376.667 223.625 379.871 239.733 379.871 256C379.871 272.267 376.667 288.375 370.442 303.403C364.217 318.432 355.092 332.088 343.59 343.59C332.087 355.093 318.432 364.217 303.403 370.442C288.375 376.667 272.267 379.871 256 379.871C239.733 379.871 223.625 376.667 208.597 370.442C193.568 364.217 179.912 355.092 168.41 343.59C156.907 332.087 147.783 318.432 141.558 303.403C135.333 288.375 132.129 272.267 132.129 256C132.129 239.733 135.333 223.625 141.558 208.597C147.783 193.568 156.908 179.912 168.41 168.41C179.913 156.907 193.568 147.783 208.597 141.558C223.625 135.333 239.733 132.129 256 132.129L256 132.129Z" stroke="#F0E325" stroke-width="8.25806"/>
<path d="M210.581 257.321L240.042 289.032L301.419 222.967" stroke="#151525" stroke-width="8.25806" stroke-linecap="round" stroke-linejoin="round"/>
<path d="M210.581 257.321L240.042 289.032L301.419 222.967" stroke="black" stroke-opacity="0.2" stroke-width="8.25806" stroke-linecap="round" stroke-linejoin="round"/>
</svg>
