<svg width="512" height="512" viewBox="0 0 512 512" fill="none" xmlns="http://www.w3.org/2000/svg">
<path d="M384 384L298.667 298.667M128 227.556C128 240.629 130.575 253.575 135.578 265.654C140.581 277.732 147.915 288.707 157.159 297.952C166.404 307.197 177.379 314.53 189.457 319.533C201.536 324.536 214.482 327.111 227.556 327.111C240.629 327.111 253.575 324.536 265.654 319.533C277.732 314.53 288.707 307.197 297.952 297.952C307.197 288.707 314.53 277.732 319.533 265.654C324.536 253.575 327.111 240.629 327.111 227.556C327.111 214.482 324.536 201.536 319.533 189.457C314.53 177.379 307.197 166.404 297.952 157.159C288.707 147.915 277.732 140.581 265.654 135.578C253.575 130.575 240.629 128 227.556 128C214.482 128 201.536 130.575 189.457 135.578C177.379 140.581 166.404 147.915 157.159 157.159C147.915 166.404 140.581 177.379 135.578 189.457C130.575 201.536 128 214.482 128 227.556Z" stroke="#151515" stroke-width="14.7692" stroke-linecap="round" stroke-linejoin="round"/>
<path d="M384 384L298.667 298.667M128 227.556C128 240.629 130.575 253.575 135.578 265.654C140.581 277.732 147.915 288.707 157.159 297.952C166.404 307.197 177.379 314.53 189.457 319.533C201.536 324.536 214.482 327.111 227.556 327.111C240.629 327.111 253.575 324.536 265.654 319.533C277.732 314.53 288.707 307.197 297.952 297.952C307.197 288.707 314.53 277.732 319.533 265.654C324.536 253.575 327.111 240.629 327.111 227.556C327.111 214.482 324.536 201.536 319.533 189.457C314.53 177.379 307.197 166.404 297.952 157.159C288.707 147.915 277.732 140.581 265.654 135.578C253.575 130.575 240.629 128 227.556 128C214.482 128 201.536 130.575 189.457 135.578C177.379 140.581 166.404 147.915 157.159 157.159C147.915 166.404 140.581 177.379 135.578 189.457C130.575 201.536 128 214.482 128 227.556Z" stroke="black" stroke-opacity="0.2" stroke-width="14.7692" stroke-linecap="round" stroke-linejoin="round"/>
<path fill-rule="evenodd" clip-rule="evenodd" d="M217.767 157.543H234.998V177.15C241.496 177.598 247.214 179.088 252.15 181.62C258.201 184.697 262.842 188.825 266.073 194.005C269.355 199.184 270.996 204.902 270.996 211.158H251.842C251.842 207.466 251.048 204.21 249.458 201.389C247.919 198.517 245.56 196.261 242.381 194.62C239.253 192.979 235.278 192.158 230.458 192.158C225.894 192.158 222.099 192.851 219.073 194.235C216.048 195.62 213.791 197.492 212.304 199.851C210.817 202.21 210.073 204.876 210.073 207.851C210.073 209.953 210.56 211.876 211.535 213.62C212.509 215.312 213.996 216.902 215.996 218.389C217.996 219.825 220.509 221.184 223.535 222.466C226.56 223.748 230.124 224.979 234.227 226.158C240.432 228.005 245.842 230.056 250.458 232.312C255.073 234.517 258.919 237.03 261.996 239.851C265.073 242.671 267.381 245.876 268.919 249.466C270.458 253.005 271.227 257.03 271.227 261.543C271.227 266.261 270.278 270.517 268.381 274.312C266.483 278.056 263.765 281.261 260.227 283.928C256.74 286.543 252.535 288.569 247.612 290.005C243.76 291.099 239.555 291.761 234.998 291.99V302.772H217.767V290.532C216.97 290.347 216.174 290.145 215.381 289.928C210.201 288.492 205.483 286.312 201.227 283.389C196.971 280.415 193.586 276.722 191.073 272.312C188.56 267.851 187.304 262.646 187.304 256.697H206.612C206.612 260.338 207.227 263.44 208.458 266.005C209.74 268.569 211.509 270.671 213.765 272.312C215.875 273.798 218.298 274.926 221.035 275.695H234.998V276.847C237.914 276.585 240.452 275.996 242.612 275.081C245.689 273.799 247.996 272.005 249.535 269.697C251.073 267.389 251.842 264.722 251.842 261.697C251.842 259.389 251.483 257.338 250.765 255.543C250.099 253.748 248.894 252.107 247.15 250.62C245.407 249.133 242.945 247.697 239.765 246.312C236.637 244.876 232.637 243.415 227.765 241.928C222.432 240.287 217.509 238.466 212.996 236.466C208.535 234.415 204.637 232.056 201.304 229.389C197.971 226.671 195.381 223.569 193.535 220.081C191.689 216.543 190.765 212.466 190.765 207.851C190.765 203.287 191.714 199.133 193.612 195.389C195.56 191.646 198.304 188.415 201.842 185.697C205.432 182.928 209.663 180.799 214.535 179.312C217.866 178.26 221.437 177.568 225.248 177.235H217.767V157.543Z" fill="#151525"/>
<path fill-rule="evenodd" clip-rule="evenodd" d="M217.767 157.543H234.998V177.15C241.496 177.598 247.214 179.088 252.15 181.62C258.201 184.697 262.842 188.825 266.073 194.005C269.355 199.184 270.996 204.902 270.996 211.158H251.842C251.842 207.466 251.048 204.21 249.458 201.389C247.919 198.517 245.56 196.261 242.381 194.62C239.253 192.979 235.278 192.158 230.458 192.158C225.894 192.158 222.099 192.851 219.073 194.235C216.048 195.62 213.791 197.492 212.304 199.851C210.817 202.21 210.073 204.876 210.073 207.851C210.073 209.953 210.56 211.876 211.535 213.62C212.509 215.312 213.996 216.902 215.996 218.389C217.996 219.825 220.509 221.184 223.535 222.466C226.56 223.748 230.124 224.979 234.227 226.158C240.432 228.005 245.842 230.056 250.458 232.312C255.073 234.517 258.919 237.03 261.996 239.851C265.073 242.671 267.381 245.876 268.919 249.466C270.458 253.005 271.227 257.03 271.227 261.543C271.227 266.261 270.278 270.517 268.381 274.312C266.483 278.056 263.765 281.261 260.227 283.928C256.74 286.543 252.535 288.569 247.612 290.005C243.76 291.099 239.555 291.761 234.998 291.99V302.772H217.767V290.532C216.97 290.347 216.174 290.145 215.381 289.928C210.201 288.492 205.483 286.312 201.227 283.389C196.971 280.415 193.586 276.722 191.073 272.312C188.56 267.851 187.304 262.646 187.304 256.697H206.612C206.612 260.338 207.227 263.44 208.458 266.005C209.74 268.569 211.509 270.671 213.765 272.312C215.875 273.798 218.298 274.926 221.035 275.695H234.998V276.847C237.914 276.585 240.452 275.996 242.612 275.081C245.689 273.799 247.996 272.005 249.535 269.697C251.073 267.389 251.842 264.722 251.842 261.697C251.842 259.389 251.483 257.338 250.765 255.543C250.099 253.748 248.894 252.107 247.15 250.62C245.407 249.133 242.945 247.697 239.765 246.312C236.637 244.876 232.637 243.415 227.765 241.928C222.432 240.287 217.509 238.466 212.996 236.466C208.535 234.415 204.637 232.056 201.304 229.389C197.971 226.671 195.381 223.569 193.535 220.081C191.689 216.543 190.765 212.466 190.765 207.851C190.765 203.287 191.714 199.133 193.612 195.389C195.56 191.646 198.304 188.415 201.842 185.697C205.432 182.928 209.663 180.799 214.535 179.312C217.866 178.26 221.437 177.568 225.248 177.235H217.767V157.543Z" fill="black" fill-opacity="0.2"/>
</svg>
