<svg width="512" height="512" viewBox="0 0 512 512" fill="none" xmlns="http://www.w3.org/2000/svg">
<path d="M343.725 326.754C339.038 322.067 331.44 322.067 326.754 326.753C322.068 331.44 322.068 339.038 326.754 343.724L343.725 326.754ZM375.515 392.485C380.201 397.172 387.799 397.172 392.485 392.485C397.172 387.799 397.172 380.201 392.485 375.515L375.515 392.485ZM326.754 343.724L375.515 392.485L392.485 375.515L343.725 326.754L326.754 343.724ZM237.714 335.428C183.748 335.428 140 291.68 140 237.714H116C116 304.935 170.493 359.428 237.714 359.428V335.428ZM335.429 237.714C335.429 291.68 291.681 335.428 237.714 335.428V359.428C304.936 359.428 359.429 304.935 359.429 237.714H335.429ZM237.714 140C291.681 140 335.429 183.748 335.429 237.714H359.429C359.429 170.493 304.936 116 237.714 116V140ZM237.714 116C170.493 116 116 170.493 116 237.714H140C140 183.748 183.748 140 237.714 140V116Z" fill="#8A8A92"/>
</svg>
