<svg width="512" height="512" viewBox="0 0 512 512" fill="none" xmlns="http://www.w3.org/2000/svg">
<path fill-rule="evenodd" clip-rule="evenodd" d="M256 384C272.809 384 289.454 380.689 304.983 374.257C320.513 367.824 334.624 358.396 346.51 346.51C358.396 334.624 367.824 320.513 374.257 304.983C380.689 289.454 384 272.809 384 256C384 239.191 380.689 222.546 374.257 207.017C367.824 191.487 358.396 177.376 346.51 165.49C334.624 153.604 320.513 144.176 304.983 137.743C289.454 131.311 272.809 128 256 128C222.052 128 189.495 141.486 165.49 165.49C141.486 189.495 128 222.052 128 256C128 289.948 141.486 322.505 165.49 346.51C189.495 370.514 222.052 384 256 384ZM238.692 198.969L318.962 243.57C321.178 244.802 323.024 246.604 324.31 248.789C325.595 250.975 326.273 253.464 326.273 256C326.273 258.536 325.595 261.025 324.31 263.211C323.024 265.396 321.178 267.198 318.962 268.43L238.692 313.031C236.092 314.476 233.161 315.216 230.188 315.179C227.214 315.142 224.302 314.329 221.74 312.82C219.177 311.311 217.054 309.159 215.579 306.577C214.105 303.994 213.331 301.071 213.333 298.098V213.902C213.331 210.929 214.105 208.006 215.579 205.423C217.054 202.841 219.177 200.689 221.74 199.18C224.302 197.671 227.214 196.858 230.188 196.821C233.161 196.784 236.092 197.524 238.692 198.969Z" fill="white" fill-opacity="0.7"/>
</svg>
