<svg width="512" height="512" viewBox="0 0 512 512" fill="none" xmlns="http://www.w3.org/2000/svg">
<rect x="128" y="128" width="256" height="256" rx="42.6667" fill="white"/>
<g clip-path="url(#clip0_3_756)">
<path d="M299 266.667L303.667 236H274V216C274 207.333 278 199.333 291.333 199.333H305V173C305 173 292.667 170.667 281 170.667C256.667 170.667 240.667 185.667 240.667 212.333V236H213.333V266.667H240.667V341.333H274V266.667H299Z" fill="#151525"/>
<path d="M299 266.667L303.667 236H274V216C274 207.333 278 199.333 291.333 199.333H305V173C305 173 292.667 170.667 281 170.667C256.667 170.667 240.667 185.667 240.667 212.333V236H213.333V266.667H240.667V341.333H274V266.667H299Z" fill="black" fill-opacity="0.2"/>
</g>
<defs>
<clipPath id="clip0_3_756">
<rect width="170.667" height="170.667" fill="white" transform="translate(170.667 170.667)"/>
</clipPath>
</defs>
</svg>
