<svg width="512" height="512" viewBox="0 0 512 512" fill="none" xmlns="http://www.w3.org/2000/svg">
<path d="M236.917 309.397L255.163 328.255M258.8 295.753L290.853 326.458M282.086 277.749L319.488 309.397M240.06 183.986H210.588H192.689C181.145 183.964 168.012 180.629 159.623 178.12C148.792 191.919 129.736 229.722 140.164 270.547L166.646 277.182C167.624 277.421 168.52 277.917 169.241 278.62L223.542 332.266C225.41 334.141 227.632 335.627 230.079 336.638C232.526 337.648 235.149 338.163 237.796 338.154L237.753 338.182C241.193 338.188 244.578 337.311 247.583 335.636C250.588 333.961 253.358 331.184 255.163 328.255M240.06 183.986C244.373 180.061 248.312 177.337 252.043 175.942C255.622 174.55 259.424 173.82 263.264 173.786C272.961 173.786 281.393 178.731 294.174 186.221C297.768 188.328 301.836 190.714 306.451 193.288C308.544 194.504 310.917 195.158 313.338 195.185C315.211 195.174 317.061 194.775 318.772 194.014L350.214 181.276C361.911 193.965 382.613 228.983 371.85 267.536L339.483 284.798M240.06 183.986L225.813 199.426L223.714 201.913C216.353 210.633 208.741 219.647 200.582 226.483C199.108 227.725 198.185 229.5 198.014 231.42C197.843 233.341 198.438 235.25 199.669 236.734C206.865 245.374 215.289 249.759 224.634 249.759C237.429 249.752 249.125 241.679 256.838 236.338C259.212 234.672 262.039 233.772 264.939 233.758C266.797 233.766 269.257 233.963 270.969 234.686C273.084 235.302 276.78 236.909 277.627 237.615L339.483 284.798M339.483 284.798C339.863 287.86 338.283 292.833 337.287 295.753C336.291 298.673 334.645 301.329 332.473 303.52C329.685 306.317 323.36 308.617 319.488 309.397M319.488 309.397C319.302 314.609 317.049 320.143 313.294 323.763C309.54 327.384 306.743 329.128 301.527 329.125C298.067 329.123 293.875 328.144 290.853 326.458M290.853 326.458C289.948 328.037 288.606 329.883 287.316 331.166C283.531 334.941 278.404 337.061 273.058 337.061C267.713 337.061 262.585 334.941 258.8 331.166L255.163 328.255" stroke="#151525" stroke-width="13.7143" stroke-linecap="round" stroke-linejoin="round"/>
<path d="M236.917 309.397L255.163 328.255M258.8 295.753L290.853 326.458M282.086 277.749L319.488 309.397M240.06 183.986H210.588H192.689C181.145 183.964 168.012 180.629 159.623 178.12C148.792 191.919 129.736 229.722 140.164 270.547L166.646 277.182C167.624 277.421 168.52 277.917 169.241 278.62L223.542 332.266C225.41 334.141 227.632 335.627 230.079 336.638C232.526 337.648 235.149 338.163 237.796 338.154L237.753 338.182C241.193 338.188 244.578 337.311 247.583 335.636C250.588 333.961 253.358 331.184 255.163 328.255M240.06 183.986C244.373 180.061 248.312 177.337 252.043 175.942C255.622 174.55 259.424 173.82 263.264 173.786C272.961 173.786 281.393 178.731 294.174 186.221C297.768 188.328 301.836 190.714 306.451 193.288C308.544 194.504 310.917 195.158 313.338 195.185C315.211 195.174 317.061 194.775 318.772 194.014L350.214 181.276C361.911 193.965 382.613 228.983 371.85 267.536L339.483 284.798M240.06 183.986L225.813 199.426L223.714 201.913C216.353 210.633 208.741 219.647 200.582 226.483C199.108 227.725 198.185 229.5 198.014 231.42C197.843 233.341 198.438 235.25 199.669 236.734C206.865 245.374 215.289 249.759 224.634 249.759C237.429 249.752 249.125 241.679 256.838 236.338C259.212 234.672 262.039 233.772 264.939 233.758C266.797 233.766 269.257 233.963 270.969 234.686C273.084 235.302 276.78 236.909 277.627 237.615L339.483 284.798M339.483 284.798C339.863 287.86 338.283 292.833 337.287 295.753C336.291 298.673 334.645 301.329 332.473 303.52C329.685 306.317 323.36 308.617 319.488 309.397M319.488 309.397C319.302 314.609 317.049 320.143 313.294 323.763C309.54 327.384 306.743 329.128 301.527 329.125C298.067 329.123 293.875 328.144 290.853 326.458M290.853 326.458C289.948 328.037 288.606 329.883 287.316 331.166C283.531 334.941 278.404 337.061 273.058 337.061C267.713 337.061 262.585 334.941 258.8 331.166L255.163 328.255" stroke="black" stroke-opacity="0.2" stroke-width="13.7143" stroke-linecap="round" stroke-linejoin="round"/>
</svg>
