<svg width="512" height="512" viewBox="0 0 512 512" fill="none" xmlns="http://www.w3.org/2000/svg">
<path d="M173.865 306.708C175.281 295.439 180.403 284.889 188.519 276.773C198.144 267.148 211.195 261.733 224.808 261.719H247.876C261.488 261.736 274.537 267.151 284.163 276.776C292.261 284.875 297.379 295.398 298.809 306.641M173.865 306.708C166.389 300.337 159.878 292.813 154.605 284.353C142.705 265.258 137.868 242.598 140.934 220.308C143.999 198.019 154.774 177.506 171.387 162.333C188.001 147.16 209.403 138.283 231.879 137.246C254.354 136.208 276.484 143.074 294.424 156.651C312.365 170.229 324.985 189.661 330.091 211.574C335.198 233.486 332.47 256.495 322.38 276.605C321.274 279.037 319.29 282.266 317.177 285.427M173.865 306.708C183.262 314.717 194.181 320.903 206.078 324.839C227.439 331.906 250.6 331.269 271.54 323.039C273.901 321.859 277.384 320.093 280.8 318.311M298.809 306.641C296.415 308.687 293.919 310.618 291.331 312.425C289.876 313.485 285.399 315.912 280.8 318.311M298.809 306.641C302.978 303.078 306.842 299.164 310.356 294.94C311.984 292.826 314.672 289.174 317.177 285.427M317.177 285.427C317.177 285.427 371.943 335.669 371.976 340.226C372.009 344.783 371.136 349.301 369.407 353.518C367.679 357.734 365.129 361.565 361.907 364.787C358.684 368.01 354.853 370.559 350.637 372.288C346.42 374.016 341.902 374.89 337.345 374.856C332.789 374.823 280.8 318.311 280.8 318.311M236.384 238.327C230.496 238.329 224.739 236.584 219.843 233.313C214.946 230.041 211.13 225.391 208.878 219.951C206.625 214.51 206.037 208.523 207.188 202.748C208.339 196.974 211.178 191.67 215.344 187.509C219.51 183.347 224.818 180.516 230.594 179.372C236.371 178.228 242.356 178.824 247.794 181.083C253.232 183.342 257.877 187.164 261.142 192.065C264.407 196.965 266.145 202.724 266.136 208.613C266.116 216.494 262.974 224.046 257.398 229.615C251.822 235.185 244.265 238.317 236.384 238.327Z" stroke="#151525" stroke-width="13.7143"/>
<path d="M173.865 306.708C175.281 295.439 180.403 284.889 188.519 276.773C198.144 267.148 211.195 261.733 224.808 261.719H247.876C261.488 261.736 274.537 267.151 284.163 276.776C292.261 284.875 297.379 295.398 298.809 306.641M173.865 306.708C166.389 300.337 159.878 292.813 154.605 284.353C142.705 265.258 137.868 242.598 140.934 220.308C143.999 198.019 154.774 177.506 171.387 162.333C188.001 147.16 209.403 138.283 231.879 137.246C254.354 136.208 276.484 143.074 294.424 156.651C312.365 170.229 324.985 189.661 330.091 211.574C335.198 233.486 332.47 256.495 322.38 276.605C321.274 279.037 319.29 282.266 317.177 285.427M173.865 306.708C183.262 314.717 194.181 320.903 206.078 324.839C227.439 331.906 250.6 331.269 271.54 323.039C273.901 321.859 277.384 320.093 280.8 318.311M298.809 306.641C296.415 308.687 293.919 310.618 291.331 312.425C289.876 313.485 285.399 315.912 280.8 318.311M298.809 306.641C302.978 303.078 306.842 299.164 310.356 294.94C311.984 292.826 314.672 289.174 317.177 285.427M317.177 285.427C317.177 285.427 371.943 335.669 371.976 340.226C372.009 344.783 371.136 349.301 369.407 353.518C367.679 357.734 365.129 361.565 361.907 364.787C358.684 368.01 354.853 370.559 350.637 372.288C346.42 374.016 341.902 374.89 337.345 374.856C332.789 374.823 280.8 318.311 280.8 318.311M236.384 238.327C230.496 238.329 224.739 236.584 219.843 233.313C214.946 230.041 211.13 225.391 208.878 219.951C206.625 214.51 206.037 208.523 207.188 202.748C208.339 196.974 211.178 191.67 215.344 187.509C219.51 183.347 224.818 180.516 230.594 179.372C236.371 178.228 242.356 178.824 247.794 181.083C253.232 183.342 257.877 187.164 261.142 192.065C264.407 196.965 266.145 202.724 266.136 208.613C266.116 216.494 262.974 224.046 257.398 229.615C251.822 235.185 244.265 238.317 236.384 238.327Z" stroke="black" stroke-opacity="0.2" stroke-width="13.7143"/>
</svg>
