<svg width="512" height="512" viewBox="0 0 512 512" fill="none" xmlns="http://www.w3.org/2000/svg">
<path d="M280.581 255.534L277.959 250.991C273.949 244.047 266.516 240.312 259.022 240.689M237.464 310.328L240.087 314.871C244.096 321.815 251.529 325.549 259.022 325.173M259.022 240.689C255.858 240.848 252.683 241.74 249.751 243.433C234.588 252.186 236.516 274.652 252.947 280.696L259.023 282.931L265.099 285.166C281.53 291.209 283.457 313.675 268.295 322.429C265.362 324.122 262.187 325.014 259.022 325.173M259.022 240.689V227.064M259.022 338.798L259.022 325.173M326.392 219.744C306.007 197.235 293.898 177.416 287.33 164.758C280.214 151.047 277.875 142.546 277.857 142.474L277.794 142.231C276.715 138.156 272.243 136.014 268.393 137.733L268.168 137.832C267.286 138.228 246.379 147.764 234.657 171.19C228.845 182.805 227.63 195.723 227.648 204.63C227.657 209.443 224.707 213.896 220.118 215.362C216.187 216.622 211.959 215.569 209.089 212.699L199.895 203.505C197.322 200.932 193.066 201.274 190.925 204.216L190.142 205.295C189.639 205.988 177.79 222.335 175.631 225.6C165.106 241.551 159.609 260.128 159.753 279.327C159.942 304.966 170.027 328.987 188.145 346.97C206.264 364.945 230.365 374.85 256.005 374.85C309.083 374.85 352.257 331.667 352.257 278.598C352.257 259.355 342.829 237.907 326.392 219.744Z" stroke="#151525" stroke-width="13.7143" stroke-linecap="round" stroke-linejoin="round"/>
<path d="M280.581 255.534L277.959 250.991C273.949 244.047 266.516 240.312 259.022 240.689M237.464 310.328L240.087 314.871C244.096 321.815 251.529 325.549 259.022 325.173M259.022 240.689C255.858 240.848 252.683 241.74 249.751 243.433C234.588 252.186 236.516 274.652 252.947 280.696L259.023 282.931L265.099 285.166C281.53 291.209 283.457 313.675 268.295 322.429C265.362 324.122 262.187 325.014 259.022 325.173M259.022 240.689V227.064M259.022 338.798L259.022 325.173M326.392 219.744C306.007 197.235 293.898 177.416 287.33 164.758C280.214 151.047 277.875 142.546 277.857 142.474L277.794 142.231C276.715 138.156 272.243 136.014 268.393 137.733L268.168 137.832C267.286 138.228 246.379 147.764 234.657 171.19C228.845 182.805 227.63 195.723 227.648 204.63C227.657 209.443 224.707 213.896 220.118 215.362C216.187 216.622 211.959 215.569 209.089 212.699L199.895 203.505C197.322 200.932 193.066 201.274 190.925 204.216L190.142 205.295C189.639 205.988 177.79 222.335 175.631 225.6C165.106 241.551 159.609 260.128 159.753 279.327C159.942 304.966 170.027 328.987 188.145 346.97C206.264 364.945 230.365 374.85 256.005 374.85C309.083 374.85 352.257 331.667 352.257 278.598C352.257 259.355 342.829 237.907 326.392 219.744Z" stroke="black" stroke-opacity="0.2" stroke-width="13.7143" stroke-linecap="round" stroke-linejoin="round"/>
</svg>
