<svg width="512" height="512" viewBox="0 0 512 512" fill="none" xmlns="http://www.w3.org/2000/svg">
<path d="M350.007 240.68C353.959 227.364 353.45 212.785 348.301 199.885C343.151 186.985 333.805 176.197 321.77 169.263C309.735 162.328 295.714 159.652 281.971 161.667C268.228 163.681 255.565 170.268 246.026 180.365C245.722 180.686 245.417 181.015 245.121 181.344C239.72 175.258 233.17 170.299 225.848 166.751C218.525 163.204 210.573 161.138 202.45 160.672C194.326 160.207 186.191 161.351 178.51 164.039C170.83 166.727 163.757 170.906 157.696 176.335C151.636 181.765 146.708 188.338 143.195 195.678C139.683 203.017 137.655 210.979 137.228 219.104C136.801 227.23 137.984 235.36 140.708 243.027C143.432 250.694 147.645 257.748 153.103 263.783C153.523 264.26 153.926 264.729 154.403 265.19C154.502 265.28 154.609 265.404 154.724 265.494C184.056 294.299 209.297 320.042 235.583 346.814C241.78 353.134 248.841 353.134 255.721 346.147C257.696 344.147 264.787 337.026 273.33 328.426M350.007 240.68C340.47 233.952 328.834 230 316.275 230C283.921 230 257.693 256.228 257.693 288.582C257.693 303.97 263.626 317.972 273.33 328.426M350.007 240.68C365.039 251.285 374.857 268.787 374.857 288.582C374.857 320.936 348.629 347.164 316.275 347.164C299.309 347.164 284.028 339.952 273.33 328.426M315.993 261.434V288.856M315.993 288.856V316.278M315.993 288.856H288.571M315.993 288.856H343.415" stroke="#151525" stroke-width="13.7143" stroke-linecap="round" stroke-linejoin="round"/>
<path d="M350.007 240.68C353.959 227.364 353.45 212.785 348.301 199.885C343.151 186.985 333.805 176.197 321.77 169.263C309.735 162.328 295.714 159.652 281.971 161.667C268.228 163.681 255.565 170.268 246.026 180.365C245.722 180.686 245.417 181.015 245.121 181.344C239.72 175.258 233.17 170.299 225.848 166.751C218.525 163.204 210.573 161.138 202.45 160.672C194.326 160.207 186.191 161.351 178.51 164.039C170.83 166.727 163.757 170.906 157.696 176.335C151.636 181.765 146.708 188.338 143.195 195.678C139.683 203.017 137.655 210.979 137.228 219.104C136.801 227.23 137.984 235.36 140.708 243.027C143.432 250.694 147.645 257.748 153.103 263.783C153.523 264.26 153.926 264.729 154.403 265.19C154.502 265.28 154.609 265.404 154.724 265.494C184.056 294.299 209.297 320.042 235.583 346.814C241.78 353.134 248.841 353.134 255.721 346.147C257.696 344.147 264.787 337.026 273.33 328.426M350.007 240.68C340.47 233.952 328.834 230 316.275 230C283.921 230 257.693 256.228 257.693 288.582C257.693 303.97 263.626 317.972 273.33 328.426M350.007 240.68C365.039 251.285 374.857 268.787 374.857 288.582C374.857 320.936 348.629 347.164 316.275 347.164C299.309 347.164 284.028 339.952 273.33 328.426M315.993 261.434V288.856M315.993 288.856V316.278M315.993 288.856H288.571M315.993 288.856H343.415" stroke="black" stroke-opacity="0.2" stroke-width="13.7143" stroke-linecap="round" stroke-linejoin="round"/>
</svg>
