<svg width="512" height="512" viewBox="0 0 512 512" fill="none" xmlns="http://www.w3.org/2000/svg">
<path d="M334.4 243.308H353.882M341.331 294.315L329.528 282.512M341.331 192.314L329.528 204.117M185.461 282.941L191.158 317.782C191.154 317.815 191.154 317.849 191.158 317.882C193.35 330.216 201.587 337.3 213.751 337.3H217.917C220.774 337.352 223.604 336.724 226.171 335.467C228.738 334.21 230.969 332.361 232.68 330.072C234.39 327.687 235.517 324.935 235.972 322.036C236.426 319.137 236.196 316.172 235.299 313.379C232.174 303.442 228.64 292.049 226.228 284.247M185.461 282.941C188.571 283.772 191.784 284.192 195.017 284.184H223.267C224.255 284.185 225.242 284.206 226.228 284.247M185.461 282.941C183.909 282.527 182.382 282.01 180.892 281.392C176.414 279.538 172.348 276.814 168.928 273.379C161.462 265.9 158.117 253.629 158.117 244.779V241.872C158.117 233.022 161.462 220.745 168.922 213.272C172.342 209.836 176.409 207.112 180.888 205.258C185.367 203.403 190.169 202.454 195.017 202.467H223.267C233.175 202.456 242.977 200.421 252.07 196.485C261.164 192.549 269.356 186.796 276.146 179.579C278.291 177.298 281.07 175.713 284.126 175.028C287.181 174.343 290.372 174.589 293.285 175.736C296.199 176.882 298.702 178.875 300.471 181.459C302.241 184.042 303.195 187.096 303.211 190.227V296.373C303.2 300.523 301.546 304.499 298.612 307.434C295.678 310.368 291.701 312.021 287.552 312.033H287.527C285.391 312.03 283.279 311.589 281.321 310.735C279.363 309.882 277.601 308.635 276.146 307.072C269.357 299.855 261.164 294.101 252.07 290.165C243.884 286.622 235.123 284.619 226.228 284.247" stroke="#151525" stroke-width="11.2941" stroke-linecap="round" stroke-linejoin="round"/>
<path d="M334.4 243.308H353.882M341.331 294.315L329.528 282.512M341.331 192.314L329.528 204.117M185.461 282.941L191.158 317.782C191.154 317.815 191.154 317.849 191.158 317.882C193.35 330.216 201.587 337.3 213.751 337.3H217.917C220.774 337.352 223.604 336.724 226.171 335.467C228.738 334.21 230.969 332.361 232.68 330.072C234.39 327.687 235.517 324.935 235.972 322.036C236.426 319.137 236.196 316.172 235.299 313.379C232.174 303.442 228.64 292.049 226.228 284.247M185.461 282.941C188.571 283.772 191.784 284.192 195.017 284.184H223.267C224.255 284.185 225.242 284.206 226.228 284.247M185.461 282.941C183.909 282.527 182.382 282.01 180.892 281.392C176.414 279.538 172.348 276.814 168.928 273.379C161.462 265.9 158.117 253.629 158.117 244.779V241.872C158.117 233.022 161.462 220.745 168.922 213.272C172.342 209.836 176.409 207.112 180.888 205.258C185.367 203.403 190.169 202.454 195.017 202.467H223.267C233.175 202.456 242.977 200.421 252.07 196.485C261.164 192.549 269.356 186.796 276.146 179.579C278.291 177.298 281.07 175.713 284.126 175.028C287.181 174.343 290.372 174.589 293.285 175.736C296.199 176.882 298.702 178.875 300.471 181.459C302.241 184.042 303.195 187.096 303.211 190.227V296.373C303.2 300.523 301.546 304.499 298.612 307.434C295.678 310.368 291.701 312.021 287.552 312.033H287.527C285.391 312.03 283.279 311.589 281.321 310.735C279.363 309.882 277.601 308.635 276.146 307.072C269.357 299.855 261.164 294.101 252.07 290.165C243.884 286.622 235.123 284.619 226.228 284.247" stroke="black" stroke-opacity="0.2" stroke-width="11.2941" stroke-linecap="round" stroke-linejoin="round"/>
</svg>
