<svg width="512" height="512" viewBox="0 0 512 512" fill="none" xmlns="http://www.w3.org/2000/svg">
<path d="M207.05 356.758C200.173 356.758 193.576 354.025 188.713 349.162C183.849 344.299 181.117 337.702 181.117 330.824V227.168C181.117 220.29 183.849 213.693 188.713 208.83C193.576 203.967 200.173 201.234 207.05 201.234H241.603C243.297 201.25 244.949 201.762 246.355 202.707L269.519 218.122C269.904 218.375 270.355 218.51 270.816 218.511H326.954C333.832 218.511 340.428 221.243 345.291 226.106C348.161 228.976 351.551 232.202 351.551 236.226M207.05 356.758H338.715C344.694 356.75 350.486 354.677 355.112 350.89C359.737 347.102 362.912 341.832 364.099 335.973L376.54 273.779C377.045 271.276 376.99 268.692 376.378 266.212C375.766 263.733 374.613 261.42 373.001 259.439L373.016 259.409C371.39 257.431 369.345 255.838 367.029 254.747C364.712 253.656 362.182 253.094 359.622 253.101H247.133C241.146 253.107 235.346 255.184 230.716 258.979C226.087 262.774 222.913 268.055 221.733 273.924L207.05 356.758Z" stroke="#151525" stroke-width="11.2941" stroke-linecap="round" stroke-linejoin="round"/>
<path d="M207.05 356.758C200.173 356.758 193.576 354.025 188.713 349.162C183.849 344.299 181.117 337.702 181.117 330.824V227.168C181.117 220.29 183.849 213.693 188.713 208.83C193.576 203.967 200.173 201.234 207.05 201.234H241.603C243.297 201.25 244.949 201.762 246.355 202.707L269.519 218.122C269.904 218.375 270.355 218.51 270.816 218.511H326.954C333.832 218.511 340.428 221.243 345.291 226.106C348.161 228.976 351.551 232.202 351.551 236.226M207.05 356.758H338.715C344.694 356.75 350.486 354.677 355.112 350.89C359.737 347.102 362.912 341.832 364.099 335.973L376.54 273.779C377.045 271.276 376.99 268.692 376.378 266.212C375.766 263.733 374.613 261.42 373.001 259.439L373.016 259.409C371.39 257.431 369.345 255.838 367.029 254.747C364.712 253.656 362.182 253.094 359.622 253.101H247.133C241.146 253.107 235.346 255.184 230.716 258.979C226.087 262.774 222.913 268.055 221.733 273.924L207.05 356.758Z" stroke="black" stroke-opacity="0.2" stroke-width="11.2941" stroke-linecap="round" stroke-linejoin="round"/>
</svg>
